<svg xmlns="http://www.w3.org/2000/svg" fill="none" viewBox="0 0 120 120" width="120" height="120">
    <path stroke="#0D0D13" stroke-width="2" d="M1 1h118v118H1z"/>
    <path fill="#0D0D13"
          d="M55.734 59.362l1.009-9.41a1.485 1.485 0 011.48-1.328h3.554a1.484 1.484 0 011.48 1.328l1.016 9.453c.66.008 1.322.01 1.98.029.13.006.258.023.385.05l-1.05-9.782a3.828 3.828 0 00-3.811-3.423h-3.553a3.829 3.829 0 00-3.811 3.423l-1.027 9.578c.782.032 1.563.068 2.348.082z"/>
    <path fill="#0D0D13"
          d="M103.542 56.285c-10.814-3.108-25.654.374-31.534 2.016a44.418 44.418 0 01-5.716 1.182c.431.123 4.585 1.055 4.82 1.456.51-.12 1.02-.24 1.526-.381 5.688-1.588 20.02-4.964 30.257-2.02a5.485 5.485 0 013.98 5.227v36.626a6.648 6.648 0 01-6.641 6.64H19.798a6.647 6.647 0 01-6.64-6.64V63.765a5.484 5.484 0 013.977-5.227 34.63 34.63 0 019.453-1.165c8.249 0 16.736 2.05 20.802 3.185a46.1 46.1 0 002.93.708c.999-.716 2.073-1.323 3.203-1.809a44.47 44.47 0 01-5.499-1.156c-5.879-1.64-20.72-5.124-31.534-2.016a7.838 7.838 0 00-5.674 7.48v36.626a8.996 8.996 0 008.985 8.984h80.433a8.996 8.996 0 008.985-8.984V63.765a7.841 7.841 0 00-5.677-7.48z"/>
    <path fill="#0D0D13"
          d="M72.321 60.03a2.325 2.325 0 00-1.791-.84H49.472a2.344 2.344 0 00-2.295 2.769 5.64 5.64 0 00.743 1.964 1.156 1.156 0 001.125 1.484h.053c.364.381.77.774 1.218 1.206.374.359.786.755 1.238 1.207.172.197.31.421.406.664a1.172 1.172 0 00.553 2.199h.134c.214.894.415 1.915.603 2.962a1.173 1.173 0 00.255 2.315h.143l.11.667c.127.772.258 1.55.39 2.322a1.172 1.172 0 00.347 2.286h.073c.113.572.234 1.132.355 1.663.11.475.215.96.32 1.447a1.172 1.172 0 00.197 2.324h.341c.68 2.56 1.732 4.81 4.219 4.81s3.538-2.25 4.219-4.81h.342a1.171 1.171 0 00.197-2.324c.105-.486.21-.972.32-1.447.124-.53.24-1.093.354-1.663h.073a1.172 1.172 0 00.347-2.286 276.295 276.295 0 00.5-2.99h.143a1.172 1.172 0 00.255-2.314c.188-1.047.39-2.068.603-2.962h.134a1.172 1.172 0 00.553-2.2c.097-.242.234-.466.406-.663.452-.452.864-.848 1.238-1.207.45-.432.853-.825 1.218-1.206h.053a1.158 1.158 0 001.126-1.484 5.64 5.64 0 00.742-1.964 2.344 2.344 0 00-.502-1.928zM60 89.134c-.822 0-1.366-1.068-1.787-2.466h3.574c-.42 1.398-.964 2.466-1.787 2.466zm2.796-6.771c-.115.49-.223.994-.331 1.496l-.1.465h-4.73c-.033-.156-.066-.313-.1-.465-.107-.502-.215-1.006-.33-1.496-.084-.36-.164-.744-.243-1.13h6.078c-.08.386-.16.77-.243 1.13zm1.135-6.118c-.146.881-.294 1.77-.448 2.645h-6.965c-.156-.875-.302-1.764-.448-2.645a24.83 24.83 0 00-.047-.287h7.956l-.048.287zm.445-2.63h-8.751a67.252 67.252 0 00-.573-2.933h9.896c-.193.87-.38 1.845-.573 2.932zm2.414-7.453a5.717 5.717 0 00-1.2 2.176H54.412a5.716 5.716 0 00-1.2-2.176c-.272-.272-.526-.52-.77-.756H67.56c-.244.236-.498.484-.77.756zm3.047-3.1H50.166a3.529 3.529 0 01-.694-1.527H70.52a3.479 3.479 0 01-.685 1.527h.002zM81.647 16.42c-3.665-6.287-12.187-6.936-18.309-3.929a7.623 7.623 0 01-6.432.115l-.538-.254c-6.098-2.844-14.409-2.118-18.015 4.068-2.995 5.137-2.656 12.18 1.016 20.932a3.556 3.556 0 003.28 2.188h34.695a3.555 3.555 0 003.281-2.188c3.672-8.753 4.016-15.795 1.022-20.932zm-3.178 20.025a1.217 1.217 0 01-1.123.749h-34.69a1.216 1.216 0 01-1.123-.749C38.164 28.408 37.776 22.07 40.38 17.6c1.813-3.113 5.28-4.475 8.854-4.475 2.158.003 4.29.479 6.244 1.394.05.025.313.151.38.187a7.995 7.995 0 012.226 1.735 5.11 5.11 0 003.46 1.887c.04 0 .079.006.116.006a1.172 1.172 0 00.113-2.339 2.228 2.228 0 01-1.184-.427 9.889 9.889 0 003.786-.973c5.048-2.479 12.313-2.031 15.25 3.006 2.6 4.467 2.213 10.808-1.156 18.844z"/>
</svg>
