<svg xmlns="http://www.w3.org/2000/svg" fill="none" viewBox="0 0 120 120" width="120" height="120">
    <path stroke="#0D0D13" stroke-width="2" d="M1 1h118v118H1z"/>
    <path fill="#0D0D13"
          d="M66.767 96.057V63.882c0-2.311-1.542-4.247-3.643-4.893v-12.89c6.846-.75 12.192-6.564 12.192-13.607 0-7.55-6.143-13.692-13.692-13.692s-13.692 6.143-13.692 13.692c0 7.043 5.346 12.857 12.192 13.607v12.889c-2.101.646-3.643 2.583-3.643 4.893v32.175a5.15 5.15 0 005.143 5.144 5.149 5.149 0 005.143-5.143zM50.932 32.492c0-5.896 4.796-10.692 10.692-10.692s10.692 4.797 10.692 10.692c0 5.896-4.796 10.693-10.692 10.693s-10.692-4.796-10.692-10.693zm12.835 63.565a2.146 2.146 0 01-2.143 2.144 2.146 2.146 0 01-2.143-2.144V63.882c0-1.182.961-2.143 2.143-2.143s2.143.96 2.143 2.143v32.175zM33.835 96.057V63.882c0-2.311-1.542-4.247-3.643-4.893v-9.952c0-1.587 1.002-2.996 2.438-3.427 5.975-1.791 9.982-7.404 9.745-13.648-.27-7.104-6.046-12.881-13.15-13.15a13.58 13.58 0 00-10.027 3.816A13.573 13.573 0 0015 32.492a1.5 1.5 0 103 0c0-2.933 1.164-5.67 3.278-7.704 2.112-2.033 4.897-3.103 7.833-2.98 5.454.208 10.06 4.814 10.267 10.267a10.698 10.698 0 01-7.608 10.662c-2.695.808-4.577 3.398-4.577 6.3v9.952c-2.101.647-3.643 2.583-3.643 4.893v32.175a5.15 5.15 0 005.143 5.144 5.15 5.15 0 005.142-5.144zm-7.285 0V63.882c0-1.182.961-2.143 2.143-2.143s2.143.96 2.143 2.143v32.175a2.146 2.146 0 01-2.143 2.144 2.146 2.146 0 01-2.143-2.144zM104.105 29.634l-18.883-8.326a1.5 1.5 0 10-1.21 2.745l16.754 7.388-7.858 7.03A6.639 6.639 0 0090.7 43.41v15.579c-2.101.646-3.643 2.583-3.643 4.893v32.175A5.15 5.15 0 0092.2 101.2a5.15 5.15 0 005.143-5.144V63.882c0-2.311-1.542-4.247-3.643-4.893v-15.58c0-1.03.44-2.016 1.208-2.703l9.592-8.582a1.498 1.498 0 00-.395-2.49zm-9.762 34.248v32.175A2.146 2.146 0 0192.2 98.2a2.146 2.146 0 01-2.143-2.144V63.882c0-1.182.961-2.143 2.143-2.143s2.143.96 2.143 2.143z"/>
</svg>
