<svg xmlns="http://www.w3.org/2000/svg" fill="none" viewBox="0 0 120 120" width="120" height="120">
    <path stroke="#0D0D13" stroke-width="2" d="M1 1h118v118H1z"/>
    <path fill="#0D0D13"
          d="M93.85 29.75c-.83-5.81-3-10-6.41-12.36-3.41-2.36-8.13-3-13.92-1.76l-2.44.53A50.36 50.36 0 0160 17.79a50.37 50.37 0 01-11.08-1.62l-2.44-.53C40.7 14.39 36 15 32.57 17.39c-3.43 2.39-5.57 6.54-6.42 12.36-1.18 8.24 6 25.42 7.3 28.54-1.61 17.55-.95 30.89 2 39.65.1.3 2.4 7.07 6.52 7.07h.37c3.6-.36 5.74-5.32 7.15-16.61 1.65-13.23 3.74-20 10.53-20 6.79 0 8.88 6.77 10.53 20 1.39 11.26 3.53 16.22 7.13 16.6h.37c4.11 0 6.42-6.77 6.52-7.07 2.92-8.76 3.59-22.1 2-39.65C87.88 55.17 95 38 93.85 29.75zm-51.25 46c.73-7.69 1.74-14.54 2.47-19.54.28-1.91.52-3.51.67-4.73a9.64 9.64 0 00-.82-4.89c-.68-1.81-1.08-2.91.48-4.63 1.84-2 6-1 9.61-.08 1.58.458 3.201.762 4.84.91h.29a25.65 25.65 0 004.86-.94c3.64-.92 7.77-2 9.61.08 1.56 1.72 1.15 2.82.48 4.63a9.64 9.64 0 00-.82 4.89c.16 1.23.39 2.83.67 4.73.74 5 1.75 11.85 2.47 19.54a141.5 141.5 0 01.44 16.79c-2.54-32.79-12.79-37-17.68-37.12h-.33c-6 .08-15.43 5.45-17.67 37.54-.208-5.74-.067-11.487.42-17.21l.01.03zm31.76 12.14c-1.3-10.38-2.92-23.29-14.3-23.38h-.12c-11.39.09-13 13-14.3 23.38-.348 3.356-1 6.673-1.95 9.91 1.51-35 10.64-40.57 16.22-40.61 3.61-.06 14.71 2.89 16.49 40.85a53.358 53.358 0 01-2.04-10.15zm8.3-29.74c1.6 17 1 30.35-1.75 38.56a13.221 13.221 0 01-1.68 3.29c.679-8.14.679-16.32 0-24.46-.73-7.73-1.75-14.61-2.49-19.63-.28-1.89-.51-3.48-.67-4.7a7.999 7.999 0 01.72-4c.69-1.84 1.47-3.93-.83-6.47-2.56-2.83-7.25-1.65-11.38-.61A23.83 23.83 0 0160 41a23.833 23.833 0 01-4.55-.87c-4.13-1-8.82-2.22-11.38.61-2.3 2.53-1.52 4.62-.83 6.47.58 1.25.828 2.627.72 4-.16 1.22-.39 2.81-.67 4.7-.74 5-1.75 11.89-2.49 19.63a147.13 147.13 0 000 24.44 12.79 12.79 0 01-1.68-3.28c-2.74-8.22-3.34-21.55-1.75-38.56v-.5l-.2-.46C34.86 51.91 29 36.77 30 30.29c.68-4.78 2.25-8 4.8-9.74 2.55-1.74 6.2-2.16 10.88-1.15l2.41.53a53.443 53.443 0 0011.85 1.72h.12a53.397 53.397 0 0011.85-1.72l2.41-.53c4.7-1 8.37-.62 10.91 1.15 2.54 1.77 4.12 5 4.8 9.74.93 6.48-4.89 21.62-7.21 26.9l-.2.46.04.5z"/>
</svg>
