<svg xmlns="http://www.w3.org/2000/svg" fill="none" viewBox="0 0 120 120" width="120" height="120">
    <path stroke="#0D0D13" stroke-width="2" d="M1 1h118v118H1z"/>
    <path fill="#0D0D13"
          d="M90.422 41.096a5.582 5.582 0 00-3.74 2.591c-1.039-1.97-2.666-3.056-4.764-3.056-2.58 0-5.311 1.884-6.533 5.107-1.633-3.05-4.66-5.115-8.1-5.115-3.557 0-6.657 2.174-8.248 5.371-1.464-2.955-4.636-5.113-8.129-5.113-3.491 0-6.623 1.967-8.129 4.811-1.404-2.57-3.93-4.265-6.21-4.265-1.476 0-2.762.59-3.764 1.614a5.575 5.575 0 00-3.028-3.055 1.002 1.002 0 00-.765 1.85 3.584 3.584 0 012.202 3.69c-.003.03.009.058.008.088-.422 1.138-.656 2.463-.656 3.925 0 .951-.032 1.891-.062 2.803-.119 3.558-.232 6.918 1.695 8.91 1.11 1.148 2.741 1.707 4.985 1.707 1.681 0 3.681-.193 5.054-1.283.524 1.322 1.578 2.398 2.897 2.805 1.598.49 3.648.76 5.772.76 1.035 0 3.67-.072 5.784-.752 1.052-.34 1.933-1.123 2.505-2.11a7.305 7.305 0 001.725 1.368l.009 3.34c0 .041.002.082.008.123.396 3.166 4.457 5.555 9.443 5.555 1.283 0 2.504-.16 3.617-.449l6.322 7a.995.995 0 001.412.072 1 1 0 00.072-1.412l-5.771-6.389c1.197-.563 2.178-1.3 2.844-2.166l9.338 10.338a.995.995 0 001.412.072 1 1 0 00.072-1.412l-9.918-10.982c.014-.076.035-.15.045-.227a.875.875 0 00.008-.125c0-1.412.006-2.824.012-4.238.445.072.9.111 1.367.113H81.256c2.266 0 3.906-.553 5.016-1.688 1.898-1.943 1.826-5.11 1.742-8.777-.018-.773-.035-1.573-.035-2.39 0-1.11-.08-2.14-.234-3.075a.986.986 0 00.107-.433 3.598 3.598 0 012.936-3.536 1 1 0 10-.366-1.965zM37.186 60.958c-1.674 0-2.834-.358-3.548-1.097-1.337-1.383-1.243-4.195-1.134-7.453.031-.933.063-1.896.063-2.869 0-3.599 1.646-6.112 4.002-6.112 2.403 0 5.306 2.897 5.306 6.497v7.82c0 1.694-.358 3.214-4.689 3.214zm20.706-1.049c-.013 1.197-.792 2.347-1.813 2.675-1.843.594-4.23.656-5.17.656-1.931 0-3.771-.238-5.185-.672-1.054-.324-1.849-1.49-1.849-2.712V48.722c.405-3.279 3.483-5.84 7.033-5.84 3.722 0 6.987 3.111 6.987 6.658l.003 1.337c.007 2.28.019 6.608-.006 9.032zm2.036-.274l-.024-8.76c0-4.55 3.313-8.252 7.381-8.252 3.361 0 6.23 2.561 7.107 6.026-.088-.045-.18-.076-.268-.118-.059-.028-.121-.053-.18-.08a8.964 8.964 0 00-.709-.285c-.057-.02-.117-.035-.174-.054a8.525 8.525 0 00-.75-.212c-.055-.013-.109-.02-.166-.03a8.538 8.538 0 00-.781-.132c-.102-.012-.205-.012-.309-.02-.203-.015-.408-.037-.613-.037l-.029.002-.031-.002c-5.225 0-9.475 4.672-9.475 10.418l.008 3.175c-.548-.506-.898-1.066-.987-1.639zm15.773 3.283a.995.995 0 00-.547-.31l-7.082-1.413a1.002 1.002 0 00-1.176.785.998.998 0 00.785 1.176l6.756 1.348 3.066 3.393c-.977 1.646-3.865 2.867-7.121 2.867-3.816 0-7.137-1.676-7.451-3.748l-.008-3.27a.94.94 0 00.172-.52 1.06 1.06 0 00-.021-.204l-.012-4.923c0-4.629 3.295-8.396 7.352-8.414 1.773.008 3.402.715 4.682 1.887.162.15.314.308.465.47.109.118.213.242.316.368.102.124.205.247.299.377.088.122.17.251.252.38.068.104.139.21.201.32.08.134.152.272.225.413a8.551 8.551 0 01.493 1.153c.047.138.094.277.137.42.043.148.08.301.115.453.031.13.064.257.09.39.035.184.061.372.084.56.014.105.033.21.043.316.029.3.045.603.045.908 0 1.494-.006 2.992-.012 4.488-.004.9-.004 1.801-.008 2.701l-2.14-2.37zm9.143-3.045c-.715.731-1.887 1.086-3.586 1.086h-.002v1l-.035-1a6.422 6.422 0 01-1.365-.146c.002-.905.004-1.81.004-2.715 0-.366-.018-.728-.051-1.084-.014-.136-.039-.268-.057-.402-.027-.217-.053-.436-.094-.647-.033-.183-.082-.36-.127-.54-.037-.156-.07-.314-.113-.468-.061-.208-.133-.409-.205-.612-.041-.117-.078-.236-.123-.352-.084-.218-.182-.429-.279-.639-.045-.094-.084-.188-.131-.279a9.498 9.498 0 00-.346-.624 6.13 6.13 0 00-.145-.247 10.56 10.56 0 00-.395-.58c-.061-.08-.119-.162-.18-.242a9.638 9.638 0 00-.657-.767c-.08-.087-.154-.18-.24-.265.004-.297.006-.587.006-.867 0-4.47 3.016-6.852 5.193-6.852 3.666 0 4.063 5.227 4.063 7.474 0 .832.018 1.646.035 2.435.076 3.216.138 5.994-1.17 7.333z"/>
</svg>
