<svg xmlns="http://www.w3.org/2000/svg" fill="none" viewBox="0 0 120 120"  width="120" height="120">
    <path stroke="#0D0D13" stroke-width="2" d="M1 1h118v118H1z"/>
    <path fill="#0D0D13"
          d="M57.422 67.856a1.172 1.172 0 01-.774-2.053l1.28-1.122a3.162 3.162 0 014.19.022l1.241 1.108a1.172 1.172 0 01-1.562 1.746l-1.237-1.109a.815.815 0 00-1.08-.005l-1.28 1.122c-.215.19-.492.293-.778.291zM60 75.29a1.171 1.171 0 01-1.172-1.172v-5.012a1.172 1.172 0 012.344 0v5.012A1.172 1.172 0 0160 75.29zM104.992 14.57c-6.797-7.182-27.792-1.854-39.427 3.192a14.037 14.037 0 01-11.13 0C42.8 12.716 21.806 7.388 15.008 14.57c-5.054 5.342-5.385 14.927-.843 22.92-.141 3.767.374 7.904.86 9.062.98 2.36 6.425 3.51 9.777 3.51.328 0 .637-.01.92-.032a6.433 6.433 0 001.9-.402c1.954 2.036 7.244 2.897 10.782 2.897.481 0 .93-.016 1.333-.047a8.315 8.315 0 002.747-.602 4.453 4.453 0 002.824 1.747c2.687.482 5.413.72 8.143.709a43.22 43.22 0 003.53-.14A5.213 5.213 0 0060 52.994a5.216 5.216 0 003.019 1.2c1.127.093 2.319.139 3.53.139a45.03 45.03 0 008.143-.708 4.453 4.453 0 002.824-1.75c.875.355 1.804.56 2.748.602.404.03.852.047 1.334.047 3.54 0 8.828-.86 10.78-2.897.61.23 1.252.365 1.903.402.281.022.59.033.919.033 3.352 0 8.797-1.15 9.777-3.511.482-1.161.998-5.298.86-9.063 4.54-7.992 4.209-17.577-.845-22.919zM20.695 47.225c-2.393-.563-3.4-1.303-3.511-1.573-.68-1.64-1.217-10.374.156-12.728.926-1.584 2.78-1.42 3.535-1.277a7.55 7.55 0 015.615 5.47c.092.396.114.806.065 1.21-.33 3.046-.289 6.121.122 9.157-.765.288-3.099.42-5.98-.258l-.002-.001zm13.82 2.637c-3.628-.588-5.157-1.603-5.328-2.001-.789-1.831-.722-11.744.937-14.894.625-1.182 2.532-1.66 4.753-1.19 3.009.64 6.152 2.947 6.605 6.693.026.238.028.479.007.717-.214 3.324-.2 6.658.042 9.98.014.188.049.366.078.546-.737.4-3.418.747-7.093.15h-.002zm23.905 1.395a2.448 2.448 0 01-1.64.599 43.952 43.952 0 01-11.04-.535 2.302 2.302 0 01-1.88-2.328c-.133-1.796-.501-8.053.36-13.046a4.961 4.961 0 015.055-4.332 8.773 8.773 0 018.572 6.53c1.312 5.585 1.158 11.845.579 13.113l-.006-.001zm17.707-2.266a2.302 2.302 0 01-1.88 2.327 43.888 43.888 0 01-11.04.535 2.447 2.447 0 01-1.641-.6c-.58-1.268-.732-7.527.572-13.108a8.778 8.778 0 018.359-6.534h.209a4.96 4.96 0 015.054 4.332c.874 4.999.506 11.254.372 13.053l-.005-.005zm14.678-1.134c-.171.399-1.7 1.414-5.327 2.002-3.672.597-6.354.25-7.091-.15.251-3.506.29-7.024.118-10.535-.02-.234-.017-.47.008-.703.45-3.75 3.593-6.059 6.606-6.698 2.223-.469 4.132.007 4.752 1.19 1.662 3.156 1.728 13.068.94 14.898l-.006-.004zm12.008-2.203c-.112.27-1.118 1.01-3.516 1.572-2.883.68-5.215.547-5.985.263.411-3.036.452-6.111.122-9.157a3.483 3.483 0 01.065-1.211 7.548 7.548 0 015.615-5.469c.753-.143 2.609-.308 3.535 1.276 1.382 2.352.846 11.087.164 12.726zm1.863-13.912c-1.165-1.992-3.404-2.89-5.996-2.395a9.79 9.79 0 00-6.099 4.154 9.092 9.092 0 00-.628-1.627c-1.133-2.154-4.005-3.094-7.314-2.39a11.188 11.188 0 00-6.942 4.605 7.225 7.225 0 00-6.909-4.817A11.095 11.095 0 0060 37.137a11.065 11.065 0 00-10.787-7.86 7.226 7.226 0 00-6.908 4.816 11.188 11.188 0 00-6.943-4.605c-3.309-.703-6.18.235-7.314 2.39a9.086 9.086 0 00-.63 1.624 9.79 9.79 0 00-6.1-4.154c-2.588-.493-4.83.403-5.996 2.396-.254.458-.45.946-.584 1.452-2.364-6.286-1.691-13.14 1.973-17.015 5.065-5.354 23.042-2.231 36.792 3.732a16.387 16.387 0 0012.994 0c13.75-5.963 31.728-9.086 36.792-3.732 3.667 3.875 4.337 10.73 1.974 17.015a6.298 6.298 0 00-.586-1.453h-.001zM105.685 84.375a6.34 6.34 0 00-5.644-3.103 10.173 10.173 0 00-7.1 3.194c-1.084-1.97-3.355-3.098-6.25-3.098a12.334 12.334 0 00-7.2 2.398 8.013 8.013 0 00-1.503 1.468 8.557 8.557 0 00-7.483-3.915A12.587 12.587 0 0060 87.369a12.588 12.588 0 00-10.505-6.048 8.553 8.553 0 00-7.481 3.913 8.077 8.077 0 00-1.505-1.471 12.338 12.338 0 00-7.201-2.4c-2.89 0-5.163 1.129-6.25 3.1a10.165 10.165 0 00-7.1-3.196 6.34 6.34 0 00-5.645 3.108c-2.194 3.734-1.255 13.728-.376 15.847 1.443 3.461 8.454 4.239 10.796 4.239.872.014 1.743-.08 2.592-.28 3.419 2.703 10.922 2.74 11.01 2.74 1.28.036 2.559-.11 3.797-.433a5.734 5.734 0 002.95 1.511c2.753.494 5.544.737 8.34.728 1.27 0 2.5-.05 3.655-.146a7.166 7.166 0 002.923-.886 7.179 7.179 0 002.922.887c1.157.096 2.387.145 3.657.145 2.792.01 5.579-.233 8.327-.725a5.74 5.74 0 002.969-1.521c.236.071.486.133.75.187.999.183 2.013.27 3.029.259 2.39 0 8.145-.539 11-2.751.856.204 1.734.3 2.614.286 2.344 0 9.352-.781 10.794-4.235.88-2.123 1.818-12.117-.377-15.852zm-1.787 14.952c-1.023 2.454-11.32 3.907-11.843 1.727-.046.17-.1.337-.164.5-.977 2.25-9.008 3.57-12.797 2.82-1.07-.218-1.805-.593-1.946-1.156v-.039a3.306 3.306 0 01-2.68 2.523 45.16 45.16 0 01-11.35.547c-.837-.07-2.212-.406-2.61-1.281-.274-.594-.742-.594-1.016 0-.398.875-1.773 1.211-2.61 1.281a45.162 45.162 0 01-11.35-.547 3.303 3.303 0 01-2.68-2.523v.039c-.664 2.57-13.493 1.219-14.743-1.664a4.652 4.652 0 01-.164-.5c-.523 2.18-10.82.727-11.843-1.727-.743-1.789-1.422-10.945.234-13.765 2.234-3.82 9.062-1.711 11.039 3.664a.35.35 0 00.68-.055 12.69 12.69 0 011.03-3.523c1.352-2.57 6.532-2.594 10.024 0 1.617 1.203 2.438 3.336 3.133 5.375a.32.32 0 00.625-.078c.055-.766.125-1.508.203-1.97 1.453-8.398 13.985-6.187 15.922 2.134.164.687.305 1.398.43 2.109a.586.586 0 001.156 0c.125-.71.266-1.422.43-2.11 1.937-8.32 14.468-10.53 15.922-2.132.039.219.07.508.109.828v.086c.04.328.07.687.094 1.055a.32.32 0 00.625.078c.18-.516.36-1.04.562-1.547a8.533 8.533 0 012.57-3.828c3.493-2.594 8.672-2.57 10.024 0 .513 1.118.86 2.305 1.031 3.523a.351.351 0 00.68.055c1.977-5.375 8.805-7.484 11.039-3.664 1.656 2.817.977 11.973.234 13.762v.003z"/>
</svg>
