<?xml version="1.0" encoding="utf-8"?>
<!-- Generator: Adobe Illustrator 25.2.0, SVG Export Plug-In . SVG Version: 6.00 Build 0)  -->
<svg version="1.1" id="Layer_1" xmlns="http://www.w3.org/2000/svg" xmlns:xlink="http://www.w3.org/1999/xlink" x="0px" y="0px"
	 viewBox="0 0 120 120" style="enable-background:new 0 0 120 120;" xml:space="preserve">
<style type="text/css">
	.st0{fill:none;stroke:#0D0D13;stroke-width:2;}
	.st1{display:none;fill:none;stroke:#0D0D13;stroke-width:2;}
	.st2{fill:#050505;}
</style>
<path class="st0" d="M1,1h118v118H1V1z"/>
<path class="st1" d="M0,0"/>
<path class="st1" d="M0,0"/>
<path class="st1" d="M0,0"/>
<path class="st2" d="M101.9,50.3c1.4-6.2,0.3-9.9-1-12c-1.1-1.9-3.1-3.2-5.3-3.4c-2.2-0.3-4.4,0.2-6.2,1.5c-1.1,0.8-2.6,0.8-3.8,0
	c-1.8-1.2-4.1-1.8-6.2-1.5c-2.2,0.2-4.1,1.5-5.3,3.4c-0.1,0.2-0.2,0.4-0.3,0.6c-0.1-0.2-0.2-0.4-0.3-0.6c-1.1-1.9-3.1-3.2-5.3-3.4
	c-2.2-0.3-4.4,0.2-6.2,1.5c-1.1,0.8-2.6,0.8-3.8,0c-1.8-1.2-4.1-1.8-6.2-1.5c-2.2,0.2-4.1,1.5-5.3,3.4c-0.1,0.2-0.2,0.4-0.3,0.6
	c-0.1-0.2-0.2-0.4-0.3-0.6c-1.1-1.9-3.1-3.2-5.3-3.4c-2.2-0.3-4.4,0.2-6.2,1.5c-1.1,0.8-2.6,0.8-3.8,0c-1.8-1.2-4.1-1.8-6.2-1.5
	c-2.2,0.2-4.1,1.5-5.3,3.4c-1.2,2.1-2.3,5.8-0.9,12c-4,0.6-7,4-7,8.1v18.5c0,4.5,3.7,8.2,8.2,8.2h81c4.5,0,8.2-3.7,8.2-8.2V58.4
	C108.7,54.4,105.8,50.9,101.9,50.3z M76.2,39.6c0.7-1.2,2-2.1,3.4-2.2c0.3,0,0.6,0,0.9,0c1.3,0,2.6,0.4,3.6,1.1c2,1.4,4.6,1.4,6.6,0
	c1.3-0.9,3-1.3,4.6-1c1.4,0.2,2.6,1,3.4,2.2c0.9,1.4,1.9,4.5,0.6,10.5H75.7c-0.4-1.6-0.6-3.1-0.7-4.7c0-0.4,0-0.8,0-1.1
	C75,42.7,75.4,41.1,76.2,39.6z M98.8,52.7c-0.2,0.6-0.4,1.2-0.6,1.9c-1.5,4.6-3.3,9.1-5.2,13.5c-0.7-4.9-2.2-11-5.3-11
	s-4.6,6.1-5.3,11c-2-4.4-3.7-8.9-5.2-13.5c-0.2-0.7-0.4-1.2-0.6-1.9H98.8z M48.8,39.6c0.7-1.2,2-2.1,3.4-2.2c0.3,0,0.6,0,0.9,0
	c1.3,0,2.6,0.4,3.6,1.1c2,1.4,4.6,1.4,6.6,0c1.3-0.9,3-1.3,4.5-1c1.4,0.2,2.6,1,3.4,2.2c0.8,1.4,1.2,3,1.2,4.7c0,0.4,0,0.7,0,1.1
	c-0.1,1.6-0.3,3.2-0.7,4.7H48.2c-0.4-1.6-0.6-3.1-0.7-4.7c0-0.4,0-0.8,0-1.1C47.5,42.7,47.9,41.1,48.8,39.6z M71.2,52.7
	c-0.2,0.6-0.4,1.2-0.6,1.9c-1.5,4.6-3.3,9.1-5.2,13.5c-0.7-4.9-2.2-11-5.3-11s-4.6,6.1-5.3,11c-2-4.4-3.7-8.9-5.2-13.5
	c-0.2-0.7-0.4-1.2-0.6-1.9H71.2z M21.2,39.6c0.7-1.2,2-2.1,3.4-2.2c0.3,0,0.6,0,0.9,0c1.3,0,2.6,0.4,3.6,1.1c2,1.4,4.6,1.4,6.6,0
	c1.3-0.9,3-1.3,4.5-1c1.4,0.2,2.6,1,3.4,2.2c0.8,1.4,1.2,3,1.2,4.7c0,0.4,0,0.7,0,1.1c-0.1,1.6-0.3,3.2-0.7,4.7H20.7
	C19.3,44.2,20.3,41.1,21.2,39.6z M43.8,52.7c-0.2,0.6-0.4,1.2-0.6,1.9c-1.5,4.6-3.3,9.1-5.2,13.5c-0.7-4.9-2.2-11-5.3-11
	s-4.6,6.1-5.3,11c-2-4.4-3.8-8.9-5.3-13.5c-0.2-0.7-0.4-1.2-0.6-1.9L43.8,52.7z M106.2,76.9c0,3.2-2.6,5.7-5.7,5.7h-81
	c-3.2,0-5.7-2.6-5.7-5.7V58.4c0-2.9,2.2-5.3,5-5.7c0.2,0.9,0.5,1.8,0.9,2.7c4.6,12.8,5.8,16.3,8.6,16.3c0.6,0,1.2-0.5,1.2-1.1
	c0.6-5.3,2.1-10.7,3.1-11c1,0.3,2.5,5.6,3.1,11c0.1,0.6,0.6,1.1,1.2,1.1c2.8,0,4-3.5,8.6-16.3c0.3-0.9,0.6-1.9,0.9-2.7
	c0.2,0.9,0.5,1.8,0.9,2.7c4.6,12.8,5.8,16.3,8.6,16.3c0.6,0,1.2-0.5,1.2-1.1c0.5-5.3,2-10.7,3-11c1,0.3,2.5,5.6,3.1,11
	c0.1,0.6,0.6,1.1,1.2,1.1c2.8,0,4-3.5,8.6-16.3c0.3-0.9,0.6-1.9,0.9-2.7c0.2,0.9,0.5,1.8,0.9,2.7c4.6,12.8,5.8,16.3,8.6,16.3
	c0.6,0,1.2-0.5,1.2-1.1c0.6-5.3,2-10.7,3.1-11c1,0.3,2.5,5.6,3.1,11c0.1,0.6,0.6,1.1,1.2,1.1c2.8,0,4-3.5,8.6-16.3
	c0.3-0.9,0.6-1.8,0.9-2.7c2.8,0.4,5,2.8,5,5.7V76.9z"/>
</svg>
