<svg width="120" height="120" viewBox="0 0 120 120" fill="none" xmlns="http://www.w3.org/2000/svg">
<rect width="120" height="120" fill="black"/>
<path d="M60 86.4395C73.031 86.4395 83.62 75.8395 83.62 62.8095C83.62 49.7795 73.03 39.1895 60 39.1895C46.97 39.1895 36.37 49.7785 36.37 62.8095C36.37 75.8405 46.969 86.4395 60 86.4395ZM60 42.1895C71.41 42.1895 80.62 51.3995 80.62 62.8095C80.62 74.2195 71.409 83.4395 60 83.4395C48.591 83.4395 39.37 74.2185 39.37 62.8095C39.37 51.4005 48.59 42.1895 60 42.1895Z" fill="white"/>
<path d="M60 74.8894C66.555 74.8894 71.88 69.4544 71.88 62.8094C71.88 56.1734 66.555 50.7394 60 50.7394C59.172 50.7274 58.49 51.3894 58.479 52.2184C58.467 53.0464 59.129 53.7284 59.958 53.7394C59.972 53.7394 59.986 53.7394 60 53.7394C64.904 53.7394 68.88 57.7654 68.88 62.8094C68.88 67.8644 64.904 71.8894 60 71.8894C55.084 71.8894 51.12 67.8664 51.12 62.8094C51.132 61.9814 50.47 61.2994 49.641 61.2884C48.813 61.2764 48.132 61.9384 48.12 62.7674C48.12 62.7814 48.12 62.7954 48.12 62.8094C48.12 69.4524 53.436 74.8894 60 74.8894Z" fill="white"/>
<path d="M89.52 46.2595C92.126 46.2595 94.24 44.0855 94.24 41.4795C94.24 38.8685 92.126 36.6895 89.52 36.6895C86.914 36.6895 84.8 38.8685 84.8 41.4795C84.8 44.0855 86.914 46.2595 89.52 46.2595ZM89.52 39.6895C90.474 39.6895 91.24 40.4505 91.24 41.4795C91.24 42.4935 90.474 43.2595 89.52 43.2595C88.566 43.2595 87.8 42.4935 87.8 41.4795C87.8 40.4505 88.566 39.6895 89.52 39.6895Z" fill="white"/>
<path d="M94.09 95.6496C98.714 95.6496 102.49 91.7936 102.49 87.1196V38.5096C102.49 33.8356 98.714 29.9796 94.09 29.9796H41.56V29.9196C41.56 26.8806 39.102 24.3496 36.07 24.3496H29.01C25.978 24.3496 23.51 26.8756 23.51 29.9196V30.3376C20.038 31.3936 17.51 34.6756 17.51 38.5096V87.1196C17.51 91.7906 21.276 95.6496 25.9 95.6496H94.09ZM26.51 29.9196C26.51 28.4836 27.642 27.3496 29.01 27.3496H36.07C37.438 27.3496 38.56 28.4786 38.56 29.9196V29.9796H26.51V29.9196ZM20.51 87.1196V38.5096C20.51 35.7646 22.482 33.5016 24.998 33.0596C25.14 33.0606 25.281 33.0416 25.418 33.0026C25.575 32.9876 25.737 32.9796 25.9 32.9796H39.816C39.976 33.0056 40.14 33.0056 40.3 32.9796H94.09C97.046 32.9796 99.49 35.4436 99.49 38.5096V87.1196C99.49 90.1856 97.046 92.6496 94.09 92.6496H25.9C22.944 92.6496 20.51 90.1886 20.51 87.1196Z" fill="white"/>
<path d="M85.658 89.04C85.672 89.04 85.686 89.04 85.7 89.04H90.84C91.56 89.04 92.172 89.025 92.778 88.911C93.384 88.797 94.043 88.545 94.544 88.033C95.546 87.009 95.541 85.75 95.541 84.17V73.48C95.553 72.652 94.891 71.97 94.062 71.959C94.047 71.959 94.033 71.959 94.018 71.959C93.19 71.971 92.529 72.652 92.541 73.48V84.17C92.541 85.352 92.386 85.841 92.382 85.926C92.351 85.935 92.306 85.947 92.224 85.963C91.972 86.01 91.496 86.041 90.841 86.041H85.7C84.872 86.029 84.191 86.691 84.179 87.52C84.167 88.347 84.829 89.028 85.658 89.04Z" fill="white"/>
</svg>
