<svg width="120" height="120" viewBox="0 0 120 120" fill="none" xmlns="http://www.w3.org/2000/svg">
<rect width="120" height="120" fill="black"/>
<path d="M84.5 102.5H81V105.5H87.5V99H84.5V102.5Z" fill="white"/>
<path d="M48.69 102.5H39.46V105.5H48.69V102.5Z" fill="white"/>
<path d="M34.84 102.5H25.61V105.5H34.84V102.5Z" fill="white"/>
<path d="M76.38 102.5H67.15V105.5H76.38V102.5Z" fill="white"/>
<path d="M62.54 102.5H53.31V105.5H62.54V102.5Z" fill="white"/>
<path d="M17.5 99H14.5V105.5H21V102.5H17.5V99Z" fill="white"/>
<path d="M17.5 43.6201H14.5V52.8501H17.5V43.6201Z" fill="white"/>
<path d="M17.5 57.46H14.5V66.69H17.5V57.46Z" fill="white"/>
<path d="M17.5 71.3096H14.5V80.5396H17.5V71.3096Z" fill="white"/>
<path d="M17.5 85.1602H14.5V94.3902H17.5V85.1602Z" fill="white"/>
<path d="M14.5 39H17.5V35.5H21V32.5H14.5V39Z" fill="white"/>
<path d="M48.69 32.5H39.46V35.5H48.69V32.5Z" fill="white"/>
<path d="M62.54 32.5H53.31V35.5H62.54V32.5Z" fill="white"/>
<path d="M76.38 32.5H67.15V35.5H76.38V32.5Z" fill="white"/>
<path d="M84.5 39H87.5V32.5H81V35.5H84.5V39Z" fill="white"/>
<path d="M87.5 71.3096H84.5V80.5396H87.5V71.3096Z" fill="white"/>
<path d="M87.5 57.46H84.5V66.69H87.5V57.46Z" fill="white"/>
<path d="M87.5 43.6201H84.5V52.8501H87.5V43.6201Z" fill="white"/>
<path d="M105.5 14.5H32.5V32.5H25.61V35.5H32.5V87.5H84.5V94.39H87.5V87.5H105.5V14.5ZM102.5 84.5H35.5V17.5H102.5V84.5Z" fill="white"/>
</svg>
