<svg width="120" height="120" viewBox="0 0 120 120" fill="none" xmlns="http://www.w3.org/2000/svg">
<rect width="120" height="120" fill="black"/>
<path d="M101.007 32.4941L89.7937 48.0873C89.2707 48.8147 90.2217 49.2924 90.955 49.4389C91.3846 49.5249 92.8381 47.9918 94.7936 45.621C95.7713 44.4357 96.8746 43.0408 98.0381 41.5343C98.279 41.2196 98.5338 40.8867 98.7806 40.5643C98.0582 44.4174 96.7184 53.4453 94.6236 65.7845C93.9294 69.7239 93.1773 74.0202 92.1285 78.4881C91.8675 79.6029 91.5677 80.7255 91.2152 81.7976C91.1217 82.0557 91.0381 82.3408 90.9304 82.5626L90.7792 82.9173C90.7284 82.9935 90.6829 83.0667 90.6413 83.1459C90.5209 83.3225 90.3113 83.5423 90.1524 83.7412C89.9728 83.8915 89.7973 84.1077 89.6231 84.2116C89.2515 84.5156 89.0128 84.5199 88.7961 84.4891C88.6894 84.5027 88.534 84.3731 88.3794 84.3107C88.2186 84.1601 88.0422 84.0444 87.8742 83.8519C87.1813 83.1068 86.5838 82.0217 86.058 80.9176C84.9965 78.6853 84.1362 76.2207 83.3197 73.7007C82.9128 72.4522 82.5365 71.1345 82.0448 69.794C81.531 68.4608 81.0462 67.1248 80.0313 65.7612C79.9161 65.5925 79.7526 65.4199 79.5876 65.251C79.4508 65.0897 79.2113 64.9 78.9635 64.731C78.7386 64.5536 78.4106 64.4398 78.1244 64.3323C77.8132 64.2889 77.5038 64.1963 77.187 64.2559C76.8683 64.2673 76.5709 64.3947 76.2746 64.5069C76.0314 64.6727 75.6734 64.8464 75.5236 65.0075C75.1382 65.338 74.8548 65.6816 74.6122 66.0201C73.6565 67.3803 73.1114 68.7374 72.5615 70.109C71.51 72.8501 70.6897 75.6322 69.8675 78.4337L69.2593 80.5277C69.0615 81.191 68.8444 81.8427 68.5892 82.4517C68.3362 83.0598 68.0344 83.6216 67.7146 84.048C67.6319 84.1342 67.5532 84.2231 67.4772 84.315C67.4013 84.3603 67.3304 84.433 67.2686 84.4751C67.1445 84.5183 67.0984 84.5736 67.0212 84.5438C66.8845 84.5784 66.4165 84.3235 66.0026 83.9171C65.5744 83.5184 65.1625 82.9789 64.7727 82.4258C63.9915 81.3027 63.2985 80.0365 62.6484 78.7419C61.3492 76.1436 60.2075 73.4051 59.0884 70.6461L58.6652 69.6017C58.4889 69.2205 58.357 68.8489 58.1401 68.4613L57.828 67.8849L57.4232 67.2937C57.0936 66.8956 56.6416 66.3864 55.9714 66.0627C55.3158 65.7782 54.5746 65.7549 53.9038 66.009C53.2329 66.2873 52.6909 66.7657 52.3946 67.1194C51.7528 67.8535 51.3431 68.5722 50.9569 69.2867C49.5006 72.1308 48.5745 74.9823 47.4624 77.6848C47.1887 78.3562 46.9082 79.019 46.6064 79.627C46.3271 80.2145 45.9332 80.8498 45.7419 81.0229C45.3538 81.3555 44.9127 81.5762 44.6649 81.5796C44.4193 81.6016 44.1372 81.4974 43.7477 81.1866C42.9833 80.4942 42.2848 79.2889 41.7289 78.0633C41.1541 76.8284 40.6979 75.4912 40.2689 74.1561C39.8375 72.7872 39.51 71.5021 39.1065 70.0277C38.9455 69.4593 38.3853 67.6482 37.4794 66.9915C37.0448 66.6458 36.4692 66.4352 35.8794 66.516C35.315 66.5817 34.823 66.8559 34.3668 67.3015C34.144 67.5323 33.9346 67.7926 33.7412 68.0781C33.5607 68.3482 33.3445 68.7149 33.2497 68.8906C33.015 69.3232 32.8816 69.6008 32.7135 69.9559C32.3971 70.6282 32.1144 71.2876 31.8389 71.9399C31.2898 73.2438 30.7717 74.5197 30.2265 75.7534C29.6818 76.9846 29.1139 78.1783 28.4777 79.2658C27.8502 80.342 27.1162 81.3524 26.3638 81.9073C25.9895 82.1819 25.6589 82.3133 25.3765 82.3207C25.334 82.3182 25.3234 82.3196 25.3205 82.3211C25.3205 82.3211 25.3212 82.3198 25.3169 82.3175C25.2871 82.291 25.1879 82.2309 25.0817 82.0624C24.6196 81.4166 24.282 80.1779 24.0615 79.0439C23.6262 76.688 23.4868 74.2259 23.413 71.843C23.2884 67.0577 23.4802 62.4794 23.7214 58.2324C23.9706 53.9825 24.2991 50.0516 24.6388 46.5068C24.6745 46.1499 24.7044 45.8169 24.7296 45.5032L29.1806 56.4997C29.5803 57.4872 30.4798 56.9083 30.9732 56.3122C31.2444 55.9845 30.6718 53.8399 29.6263 50.7226C29.1036 49.1639 28.4626 47.3622 27.7496 45.4227C27.3811 44.4351 26.9987 43.4106 26.6076 42.3631C25.8423 40.4116 25.06 38.4171 24.2709 36.405C22.1299 40.5055 19.93 44.7187 17.9438 48.5227C16.4284 51.468 15.076 54.0965 14.0945 56.004C13.2323 57.6901 16.8192 57.5409 17.4925 56.2243L21.9129 47.5799C21.419 49.6118 21.014 51.9332 20.8552 54.172C20.5475 58.4727 20.3182 62.7829 20.2617 67.1177C20.2345 69.2853 20.2528 71.4591 20.3601 73.6469C20.4765 75.8374 20.6505 78.0325 21.1382 80.295C21.4196 81.4319 21.6894 82.5822 22.5238 83.84C22.7471 84.1511 23.0019 84.4757 23.3962 84.7691C23.7595 85.0657 24.2987 85.3153 24.8171 85.395C25.4006 85.4759 25.7632 85.4244 26.181 85.3496C26.5843 85.2653 26.9693 85.1318 27.3104 84.9613C28.6882 84.2617 29.5106 83.2519 30.2215 82.2939C30.9196 81.3183 31.4736 80.3193 31.9837 79.3185C32.9904 77.3168 33.7973 75.2908 34.619 73.3289C35.0278 72.3561 35.4444 71.3757 35.8856 70.5287L35.9734 70.3661L35.9955 70.4319L36.1747 71.0157L36.3764 71.7623C36.656 72.8191 36.9472 73.875 37.2787 74.9276C37.9558 77.0317 38.6798 79.1325 39.8866 81.1957C40.5038 82.2101 41.2382 83.2857 42.5873 84.1177C43.3033 84.4861 44.2119 84.7773 45.1087 84.6217C45.9795 84.4986 46.722 84.1247 47.2732 83.7087L47.6925 83.3916C47.8445 83.2571 48.0063 83.0873 48.1544 82.9293C48.3904 82.636 48.6029 82.3419 48.7588 82.0731C49.0979 81.5224 49.3463 81.0027 49.5894 80.4824C50.0619 79.4468 50.461 78.4298 50.8535 77.4198C51.6341 75.4068 52.3615 73.403 53.223 71.5583C53.6481 70.6581 54.1344 69.7329 54.6301 69.1706C54.7678 68.9993 54.8158 68.9729 54.8562 68.9337L54.9549 69.0404L55.2577 69.4812L55.5704 70.0653C55.7593 70.4924 55.9548 70.9288 56.1603 71.4525L57.3986 74.4459C58.2433 76.4401 59.1274 78.4298 60.1323 80.3966C61.1847 82.3555 62.1866 84.3201 64.0354 86.1488C64.5438 86.5912 65.1154 87.05 65.9664 87.3409C66.1939 87.4012 66.42 87.4598 66.6562 87.4945C66.9084 87.5089 67.1654 87.5116 67.4172 87.4968C67.6667 87.4517 67.9178 87.3918 68.1612 87.3194C68.3829 87.2291 68.5919 87.1187 68.8003 87.0055C69.5478 86.5195 70.0421 85.923 70.39 85.3706C70.7576 84.8083 71.0262 84.2525 71.2597 83.7015C71.7192 82.6172 72.0568 81.4699 72.3369 80.4634L73.224 77.3875C73.8277 75.3488 74.4489 73.3178 75.177 71.3799C75.5415 70.4154 75.9348 69.4666 76.3838 68.6232C76.6041 68.1969 76.8502 67.8172 77.0874 67.5112L77.2617 67.3037C77.3153 67.2598 77.3654 67.2145 77.4133 67.165L77.4351 67.1438C77.4305 67.1387 77.4319 67.1382 77.5182 67.2185C77.7219 67.4035 77.9758 67.7679 78.2005 68.1466C78.6586 68.9304 79.0474 69.8751 79.4043 70.8247C80.0964 72.7187 80.689 74.864 81.4412 76.906C82.186 78.965 82.9563 81.016 84.0448 83.0473C84.597 84.0592 85.2111 85.0834 86.2289 86.0633C86.5267 86.3018 86.7496 86.551 87.1685 86.7492C87.3599 86.8507 87.5524 86.9482 87.7497 87.0364C87.9841 87.1005 88.2259 87.1546 88.4678 87.196C89.4543 87.3408 90.4789 86.9628 91.055 86.5132C91.3986 86.2941 91.6466 86.0568 91.8866 85.8184C92.1515 85.5795 92.332 85.3377 92.5375 85.0954C92.7264 84.8993 92.9683 84.5128 93.1714 84.1436C93.3161 83.8314 93.4342 83.5418 93.5536 83.2448C93.9605 82.1188 94.2258 81.0576 94.4996 79.9832C95.5145 75.7168 96.2284 71.4805 96.9374 67.2286C98.319 58.7302 99.4909 50.2213 100.595 41.7007C100.607 41.6074 100.614 41.5308 100.625 41.4408C100.904 42.3399 101.179 43.2257 101.441 44.0708C102.197 46.4588 102.869 48.5811 103.368 50.1574C103.853 51.6747 106.378 49.3088 106 48.124L101.007 32.4941Z" fill="white"/>
</svg>
