<svg width="120" height="120" viewBox="0 0 120 120" fill="none" xmlns="http://www.w3.org/2000/svg">
<rect width="120" height="120" fill="black"/>
<path d="M77.1429 92.2857C76.5715 92.2857 76 92 75.4286 91.7143C74.2858 90.8571 74 88.8571 74.8572 87.7143L96.2858 60.8571L74.8572 34C74 32.8571 74 31.1429 75.4286 30C76.5715 29.1429 78.5715 29.1429 79.4286 30.5714L102.286 59.1429C103.143 60.2857 103.143 61.7143 102.286 62.5714L79.4286 91.1429C78.8572 92 78 92.2857 77.1429 92.2857Z" fill="white"/>
<path d="M42.8571 92.286C42 92.286 41.1428 92.0003 40.5714 91.1432L17.7143 62.5718C16.8571 61.4289 16.8571 60.0003 17.7143 59.1432L40.5714 30.5718C41.4286 29.4289 43.4286 29.1432 44.5714 30.0003C45.7143 30.8575 46 32.8575 45.1428 34.0003L23.7143 60.8575L45.1428 87.7146C46 88.8575 46 90.8575 44.5714 91.7146C44 92.0003 43.4286 92.286 42.8571 92.286Z" fill="white"/>
</svg>
