<svg width="120" height="120" viewBox="0 0 120 120" fill="none" xmlns="http://www.w3.org/2000/svg">
<rect width="120" height="120" fill="black"/>
<g clip-path="url(#clip0)">
<path d="M85.2454 27.1872C85.5348 27.172 85.8262 27.1643 86.1194 27.1643C95.1874 27.1643 102.537 34.5137 102.537 43.5822C102.537 47.5788 101.11 51.2416 98.7366 54.0886L109.563 64.9149C110.97 66.3221 108.859 68.4328 107.452 67.0257L96.6258 56.1994C93.7789 58.5725 90.1161 60.0001 86.1194 60.0001C84.3693 60.0001 82.6831 59.7264 81.1014 59.2193C81.0745 59.2752 81.0476 59.3307 81.0205 59.3857C80.4361 60.5762 79.8295 61.5712 79.0532 62.6464C78.5402 63.3568 76.2006 66.3252 75.5177 67.2356C74.3193 68.8335 74.0927 71.7032 74.246 79.6156C74.2908 81.9303 74.3056 83.0725 74.2989 84.4343C74.2496 94.3213 72.6451 100.251 67.662 103.42C66.3955 104.226 65.2955 103.585 64.4001 102.335C63.8881 101.621 63.3502 100.585 62.6913 99.1038C62.1281 97.8378 59.4285 91.1908 58.6327 89.3652C55.0449 81.1354 51.8763 76.7879 48.9506 76.7879C46.0206 76.7879 42.843 81.1393 39.2508 89.3643C38.4397 91.2215 35.7435 97.854 35.1949 99.0893C34.5376 100.569 34.0025 101.604 33.4947 102.319C32.6034 103.574 31.5166 104.222 30.2471 103.425C25.2255 100.276 23.6168 94.3363 23.5804 84.4157C23.5754 83.058 23.5916 81.9161 23.6391 79.6128C23.8024 71.6976 23.5795 68.8304 22.3834 67.2356C21.9881 66.7085 20.66 64.9554 20.3827 64.5852C19.6887 63.6592 19.1852 62.9611 18.724 62.2759C17.7251 60.7917 16.9492 59.3889 16.2002 57.6723C15.2668 55.5331 14.3449 52.8276 13.1889 48.8458C10.5831 39.8705 11.1891 31.0693 13.2209 25.5279C15.1575 20.2461 24.5569 14.8711 29.6344 15.28C33.2688 15.5726 35.6487 16.879 39.9242 20.2074C40.2428 20.4556 40.4054 20.5822 40.5582 20.7009C44.2039 23.5305 46.1977 24.5491 48.9506 24.5491C51.7265 24.5491 53.73 23.5187 57.4623 20.6234C57.7384 20.4089 57.7384 20.409 58.0168 20.1924C62.3832 16.7973 64.7739 15.4898 68.4428 15.2382C73.4579 14.8944 82.7803 20.3033 84.6816 25.5315C84.9014 26.1359 85.0807 26.6557 85.2454 27.1872ZM72.6866 43.5822C72.6866 51.0021 78.7 57.0151 86.1194 57.0151C93.5393 57.0151 99.5523 51.0016 99.5523 43.5822C99.5523 36.1623 93.5388 30.1494 86.1194 30.1494C78.6995 30.1494 72.6866 36.1628 72.6866 43.5822ZM81.8763 26.5518C80.4524 22.6363 72.392 17.9595 68.647 18.2163C65.7557 18.4145 63.7687 19.5013 59.8491 22.5489C59.5714 22.7649 59.5714 22.7649 59.292 22.982C55.0679 26.2588 52.588 27.5342 48.9506 27.5342C45.3404 27.5342 42.8631 26.2686 38.7279 23.059C38.5729 22.9387 38.408 22.8103 38.0905 22.5629C34.2511 19.574 32.2709 18.487 29.3948 18.2554C25.5973 17.9496 17.4762 22.5936 16.0235 26.5554C14.1998 31.5293 13.6382 39.6869 16.0556 48.0136C17.1789 51.8828 18.0631 54.4778 18.9362 56.4786C19.6117 58.0269 20.3004 59.2718 21.2005 60.6092C21.6286 61.2454 22.1052 61.906 22.7715 62.7952C23.0427 63.1572 24.3703 64.9097 24.7715 65.4447C26.5778 67.8531 26.8067 70.797 26.6236 79.6744C26.5766 81.9541 26.5606 83.0788 26.5654 84.4048C26.5964 92.8195 27.8256 97.8557 31.1678 100.433C31.5129 99.9054 31.9405 99.0626 32.4668 97.8776C32.9908 96.6977 35.6823 90.0767 36.5152 88.1696C40.6367 78.7327 44.2367 73.8028 48.9506 73.8028C53.6621 73.8028 57.2519 78.7281 61.369 88.1723C62.1867 90.048 64.8807 96.6811 65.4187 97.8905C65.9442 99.0718 66.3722 99.9125 66.7178 100.438C70.043 97.8463 71.2721 92.8128 71.3138 84.4195C71.3205 83.0895 71.3058 81.9645 71.2615 79.6734C71.0896 70.8023 71.3224 67.8543 73.1297 65.4447C73.8486 64.4861 76.165 61.5472 76.633 60.899C77.3144 59.9553 77.8337 59.1033 78.341 58.0702C73.0995 55.2285 69.7015 49.7185 69.7015 43.5822C69.7015 35.9101 74.9933 29.373 82.2504 27.6227C82.1392 27.2862 82.0172 26.9394 81.8763 26.5518Z" fill="white"/>
</g>
<defs>
<clipPath id="clip0">
<rect width="100" height="100" fill="white" transform="translate(10 10)"/>
</clipPath>
</defs>
</svg>
