<svg width="120" height="120" viewBox="0 0 120 120" fill="none" xmlns="http://www.w3.org/2000/svg">
<rect width="120" height="120" fill="black"/>
<g clip-path="url(#clip0)">
<path d="M102.499 65.2926C101.234 47.9013 89.701 33.3668 73.5158 28.0173H93.7455V34.5956C93.7455 35.0207 94.0895 35.3648 94.5147 35.3648H109.205C109.63 35.3648 109.974 35.0207 109.974 34.5956V19.905C109.974 19.4799 109.63 19.1358 109.205 19.1358H94.5147C94.0895 19.1358 93.7455 19.4799 93.7455 19.905V26.4788H68.098C67.7078 22.3528 64.2265 19.1133 60 19.1133C55.7736 19.1133 52.2915 22.3528 51.9013 26.4788H26.2545V19.905C26.2545 19.4799 25.9105 19.1358 25.4853 19.1358H10.7948C10.3696 19.1358 10.0255 19.4799 10.0255 19.905V34.5956C10.0255 35.0207 10.3696 35.3648 10.7948 35.3648H25.4853C25.9105 35.3648 26.2545 35.0207 26.2545 34.5956V28.0173H46.4965C40.2532 30.0933 34.5801 33.5902 29.8558 38.3208C22.6107 45.5665 18.2433 55.1227 17.4939 65.2929C13.3074 65.6228 10 69.1276 10 73.3974C10 77.8843 13.6501 81.5352 18.137 81.5352C22.6239 81.5352 26.274 77.8843 26.274 73.3974C26.274 69.2142 23.1004 65.7615 19.0349 65.3127C19.7778 55.5454 23.9823 46.3712 30.9443 39.4085C36.7148 33.63 43.953 29.7618 51.9184 28.1732C52.3788 32.2266 55.8256 35.3873 60 35.3873C64.1741 35.3873 67.6198 32.2272 68.0807 28.1745C86.2081 31.7748 99.5765 46.8682 100.959 65.3136C96.8959 65.7648 93.7252 69.2161 93.7252 73.3974C93.7252 77.8843 97.3753 81.5352 101.862 81.5352C106.349 81.5352 110 77.8843 110 73.3974C110 69.1255 106.689 65.6195 102.499 65.2926ZM95.284 20.6743H108.436V33.8263H95.284V20.6743ZM24.716 33.8263H11.564V20.6743H24.716V33.8263ZM24.7356 73.3974C24.7356 77.0362 21.7758 79.9967 18.137 79.9967C14.4982 79.9967 11.5385 77.0362 11.5385 73.3974C11.5385 69.7586 14.4982 66.7988 18.137 66.7988C21.7758 66.7988 24.7356 69.7586 24.7356 73.3974ZM60 33.8489C56.3646 33.8489 53.4067 30.8945 53.4013 27.2604C53.4013 27.256 53.4037 27.2524 53.4037 27.248C53.4037 27.244 53.4014 27.2406 53.4014 27.2366C53.409 23.6042 56.3659 20.6517 60 20.6517C63.6353 20.6517 66.5921 23.6057 66.598 27.2395C66.598 27.2426 66.5963 27.245 66.5963 27.248C66.5963 27.2514 66.5982 27.2541 66.5982 27.2574C66.5942 30.893 63.6364 33.8489 60 33.8489ZM101.862 79.9967C98.2234 79.9967 95.2637 77.0362 95.2637 73.3974C95.2637 69.7586 98.2234 66.7988 101.862 66.7988C105.501 66.7988 108.462 69.7586 108.462 73.3974C108.462 77.0362 105.501 79.9967 101.862 79.9967Z" fill="white"/>
<path d="M37.521 100.817L60 90.5493L82.479 100.817C82.5811 100.865 82.6901 100.887 82.7982 100.887C83.0033 100.887 83.2054 100.805 83.3534 100.65C83.5802 100.414 83.6321 100.06 83.4833 99.7688L60.6851 55.0144C60.4237 54.4991 59.5763 54.4991 59.3149 55.0144L36.5167 99.7688C36.368 100.06 36.4198 100.414 36.6467 100.65C36.8728 100.887 37.2251 100.954 37.521 100.817ZM60 57.0584L81.1118 98.5023L60.3193 89.0041C60.2179 88.9575 60.1089 88.9342 60 88.9342C59.8911 88.9342 59.7822 88.9575 59.6808 89.0041L38.8882 98.5023L60 57.0584Z" fill="white"/>
</g>
<defs>
<clipPath id="clip0">
<rect width="100" height="100" fill="white" transform="translate(10 10)"/>
</clipPath>
</defs>
</svg>
