<svg width="12" height="12" viewBox="0 0 12 12" fill="none" xmlns="http://www.w3.org/2000/svg">
<path d="M7.75 1.5H4.25C3.52065 1.5 2.82118 1.78973 2.30546 2.30546C1.78973 2.82118 1.5 3.52065 1.5 4.25V7.75C1.5 8.47935 1.78973 9.17882 2.30546 9.69454C2.82118 10.2103 3.52065 10.5 4.25 10.5H7.75C8.47935 10.5 9.17882 10.2103 9.69454 9.69454C10.2103 9.17882 10.5 8.47935 10.5 7.75V4.25C10.5 3.52065 10.2103 2.82118 9.69454 2.30546C9.17882 1.78973 8.47935 1.5 7.75 1.5ZM9.75 7.75C9.7494 8.28025 9.53849 8.78861 9.16355 9.16355C8.78861 9.53849 8.28025 9.7494 7.75 9.75H4.25C3.71975 9.7494 3.21139 9.53849 2.83645 9.16355C2.46151 8.78861 2.2506 8.28025 2.25 7.75V4.25C2.2506 3.71975 2.4615 3.21139 2.83644 2.83644C3.21139 2.4615 3.71975 2.2506 4.25 2.25H7.75C8.28025 2.2506 8.78861 2.4615 9.16356 2.83644C9.5385 3.21139 9.7494 3.71975 9.75 4.25V7.75Z" fill="#0D0D13"/>
<path d="M6 3.75C5.55499 3.75 5.11998 3.88196 4.74997 4.12919C4.37996 4.37643 4.09157 4.72783 3.92127 5.13896C3.75097 5.5501 3.70642 6.0025 3.79323 6.43895C3.88005 6.87541 4.09434 7.27632 4.40901 7.59099C4.72368 7.90566 5.12459 8.11995 5.56105 8.20677C5.9975 8.29358 6.4499 8.24903 6.86104 8.07873C7.27217 7.90843 7.62357 7.62004 7.87081 7.25003C8.11804 6.88002 8.25 6.44501 8.25 6C8.25 5.40326 8.01295 4.83097 7.59099 4.40901C7.16903 3.98705 6.59674 3.75 6 3.75ZM6 7.5C5.70333 7.5 5.41332 7.41203 5.16665 7.2472C4.91997 7.08238 4.72771 6.84811 4.61418 6.57403C4.50065 6.29994 4.47095 5.99834 4.52882 5.70736C4.5867 5.41639 4.72956 5.14912 4.93934 4.93934C5.14912 4.72956 5.41639 4.5867 5.70737 4.52882C5.99834 4.47094 6.29994 4.50065 6.57403 4.61418C6.84812 4.72771 7.08238 4.91997 7.24721 5.16664C7.41203 5.41332 7.5 5.70333 7.5 6C7.49955 6.39769 7.34137 6.77896 7.06016 7.06016C6.77896 7.34137 6.39769 7.49955 6 7.5Z" fill="#0D0D13"/>
<path d="M8.35001 4.1499C8.62615 4.1499 8.85001 3.92604 8.85001 3.6499C8.85001 3.37376 8.62615 3.1499 8.35001 3.1499C8.07386 3.1499 7.85001 3.37376 7.85001 3.6499C7.85001 3.92604 8.07386 4.1499 8.35001 4.1499Z" fill="#0D0D13"/>
</svg>
