<svg width="32" height="20" viewBox="0 0 32 20" fill="none" xmlns="http://www.w3.org/2000/svg">
<path d="M0.726471 0.901978C0.336135 0.901978 0 1.22261 0 1.61727V18.7843C0 19.179 0.336135 19.4996 0.726471 19.4996H30.7465C31.1368 19.4996 31.4729 19.179 31.4729 18.7843V1.61727C31.4729 1.22261 31.1368 0.901978 30.7465 0.901978H0.726471ZM0.715294 1.61727C0.715294 1.6137 0.71111 1.61727 0.726453 1.61727H30.7465C30.7618 1.61727 30.7576 1.6137 30.7576 1.61727V3.93082L15.7364 14.4032L0.715258 3.93082V1.61727H0.715294ZM0.715294 4.80254L9.17588 10.7037L0.715294 18.3037V4.80254ZM30.7576 4.80254V18.3037L22.2971 10.7037L30.7576 4.80254ZM9.77941 11.1173L15.5353 15.1408C15.5946 15.1812 15.6647 15.2028 15.7365 15.2028C15.8082 15.2028 15.8783 15.1812 15.9376 15.1408L21.6935 11.1173L30.2324 18.7843H1.24059L9.77941 11.1173Z" fill="white"/>
</svg>
