<svg width="32" height="56" viewBox="0 0 32 56" fill="none" xmlns="http://www.w3.org/2000/svg">
<path d="M27.7419 0H4.25805C3.29984 0 2.38089 0.380644 1.70334 1.05819C1.02579 1.73575 0.645142 2.6547 0.645142 3.6129L0.645142 52.3871C0.645142 53.3453 1.02579 54.2643 1.70334 54.9418C2.38089 55.6194 3.29984 56 4.25805 56H27.7419C28.7001 56 29.6191 55.6194 30.2966 54.9418C30.9742 54.2643 31.3548 53.3453 31.3548 52.3871V3.6129C31.3548 2.6547 30.9742 1.73575 30.2966 1.05819C29.6191 0.380644 28.7001 0 27.7419 0V0ZM4.25805 1.80645H27.7419C28.221 1.80645 28.6805 1.99677 29.0193 2.33555C29.358 2.67432 29.5484 3.1338 29.5484 3.6129V9.03226H2.45159V3.6129C2.45159 3.1338 2.64192 2.67432 2.98069 2.33555C3.31947 1.99677 3.77894 1.80645 4.25805 1.80645ZM29.5484 10.8387V46.0645H2.45159V10.8387H29.5484ZM27.7419 54.1935H4.25805C3.77894 54.1935 3.31947 54.0032 2.98069 53.6645C2.64192 53.3257 2.45159 52.8662 2.45159 52.3871V47.871H29.5484V52.3871C29.5484 52.8662 29.358 53.3257 29.0193 53.6645C28.6805 54.0032 28.221 54.1935 27.7419 54.1935Z" fill="white"/>
<path d="M10.5806 6.32256C11.0794 6.32256 11.4838 5.91818 11.4838 5.41934C11.4838 4.9205 11.0794 4.51611 10.5806 4.51611C10.0818 4.51611 9.67737 4.9205 9.67737 5.41934C9.67737 5.91818 10.0818 6.32256 10.5806 6.32256Z" fill="white"/>
<path d="M13.2903 6.32256H18.7097C18.9492 6.32256 19.1789 6.2274 19.3483 6.05802C19.5177 5.88863 19.6129 5.65889 19.6129 5.41934C19.6129 5.17979 19.5177 4.95005 19.3483 4.78066C19.1789 4.61127 18.9492 4.51611 18.7097 4.51611H13.2903C13.0508 4.51611 12.821 4.61127 12.6516 4.78066C12.4822 4.95005 12.3871 5.17979 12.3871 5.41934C12.3871 5.65889 12.4822 5.88863 12.6516 6.05802C12.821 6.2274 13.0508 6.32256 13.2903 6.32256Z" fill="white"/>
</svg>
