<svg width="25" height="26" viewBox="0 0 25 26" fill="none" xmlns="http://www.w3.org/2000/svg">
<path d="M23.4566 18.895L19.8799 16.3961C19.4122 16.0699 18.8655 15.8979 18.2986 15.8979C17.3972 15.8979 16.551 16.34 16.0356 17.0797L15.2053 18.2696C13.8137 17.3364 12.261 16.0333 10.7808 14.5533C9.30084 13.0734 7.998 11.5206 7.06501 10.1291L8.25436 9.29882C8.86063 8.87667 9.26552 8.24425 9.39411 7.51857C9.52243 6.79342 9.36068 6.06072 8.93799 5.45418L6.4396 1.8775C5.91717 1.13025 5.07422 0.683838 4.18436 0.683838C3.87597 0.683838 3.57351 0.738291 3.28561 0.844503C2.95862 0.965271 2.654 1.11354 2.35532 1.30116L1.86146 1.64891C1.738 1.74487 1.62316 1.85001 1.51317 1.95999C0.910681 2.56222 0.48314 3.32456 0.241873 4.22601C-0.787623 8.08521 1.7628 13.9209 6.58814 18.7462C10.6403 22.7984 15.5085 25.3157 19.2925 25.3162C19.2928 25.3162 19.2928 25.3162 19.2928 25.3162C19.9408 25.3162 20.5517 25.2408 21.1086 25.092C22.0101 24.851 22.7724 24.4234 23.3752 23.8207C23.4846 23.7112 23.5892 23.5964 23.7014 23.4513L24.0494 22.9548C24.2195 22.6831 24.3675 22.3785 24.4899 22.049C24.9107 20.9114 24.4858 19.6143 23.4566 18.895ZM23.4544 21.6657C23.3585 21.924 23.2439 22.1606 23.1296 22.3445L22.8142 22.7947C22.746 22.8825 22.6711 22.9629 22.594 23.0405C22.1306 23.5036 21.5348 23.8352 20.8237 24.0255C20.3598 24.149 19.8449 24.2121 19.2928 24.2121C15.7905 24.2115 11.2215 21.8183 7.36882 17.9656C2.88395 13.4804 0.392024 7.94772 1.30857 4.51122C1.49889 3.79955 1.83046 3.2038 2.29385 2.74067C2.37149 2.66304 2.45182 2.58809 2.5176 2.53634L2.96536 2.22094C3.17535 2.08939 3.41177 1.97509 3.6684 1.8802C3.83365 1.81928 4.00725 1.788 4.18436 1.788C4.7138 1.788 5.21844 2.05812 5.53438 2.50992L8.0325 6.08552C8.28644 6.45052 8.38402 6.89046 8.30693 7.32555C8.22983 7.76064 7.98721 8.13966 7.62302 8.39306L5.99508 9.52903C5.75354 9.69779 5.68669 10.0261 5.84358 10.2757C6.82886 11.843 8.30504 13.6395 10.0001 15.334C11.6952 17.0291 13.4916 18.5052 15.0584 19.4908C15.308 19.6466 15.6369 19.5803 15.8048 19.3393L16.941 17.7111C17.4451 16.9881 18.521 16.7945 19.2483 17.3013L22.8239 19.7997C23.4418 20.2316 23.7008 20.9993 23.4544 21.6657Z" fill="white"/>
</svg>
