<svg width="64" height="64" viewBox="0 0 64 64" fill="none" xmlns="http://www.w3.org/2000/svg">
<path d="M32.5545 7.52539C18.7472 7.52539 7.52734 18.7507 7.52734 32.558C7.52735 46.3653 18.7472 57.5852 32.5545 57.5852C46.3618 57.5852 57.5871 46.3653 57.5871 32.558C57.5871 18.7507 46.3618 7.52539 32.5545 7.52539V7.52539ZM32.5545 10.471C44.7702 10.471 54.6415 20.3423 54.6415 32.558C54.6415 44.7737 44.7702 54.645 32.5545 54.645C20.3388 54.645 10.4676 44.7737 10.4676 32.558C10.4676 20.3423 20.3388 10.471 32.5545 10.471Z" fill="white"/>
<path d="M32.5563 1.63492C32.3611 1.63211 32.1674 1.66816 31.9863 1.7409C31.8052 1.81364 31.6403 1.92165 31.5013 2.05866C31.3623 2.19567 31.252 2.35892 31.1766 2.53896C31.1013 2.719 31.0625 2.91224 31.0625 3.1074C31.0625 3.30257 31.1013 3.49581 31.1766 3.67585C31.252 3.85589 31.3623 4.01914 31.5013 4.15615C31.6403 4.29316 31.8052 4.40117 31.9863 4.47391C32.1674 4.54665 32.3611 4.58269 32.5563 4.57989C48.0249 4.57989 60.5331 17.0881 60.5331 32.5567C60.5331 48.0253 48.0249 60.5335 32.5563 60.5335C32.3611 60.5307 32.1674 60.5667 31.9863 60.6394C31.8052 60.7122 31.6403 60.8202 31.5013 60.9572C31.3623 61.0942 31.252 61.2575 31.1766 61.4376C31.1013 61.6176 31.0625 61.8108 31.0625 62.0059C31.0625 62.2011 31.1013 62.3943 31.1766 62.5744C31.252 62.7544 31.3623 62.9177 31.5013 63.0547C31.6403 63.1917 31.8052 63.2997 31.9863 63.3724C32.1674 63.4452 32.3611 63.4812 32.5563 63.4784C49.6164 63.4784 63.478 49.6169 63.478 32.5567C63.478 15.4965 49.6164 1.63492 32.5563 1.63492Z" fill="white"/>
<path d="M4.57969 32.5565C4.57969 32.947 4.42455 33.3215 4.14841 33.5977C3.87227 33.8738 3.49775 34.029 3.10723 34.029C2.71671 34.029 2.34219 33.8738 2.06605 33.5977C1.78991 33.3215 1.63477 32.947 1.63477 32.5565C1.63476 32.3631 1.67285 32.1716 1.74685 31.993C1.82085 31.8143 1.92931 31.652 2.06604 31.5153C2.20277 31.3786 2.36509 31.2701 2.54374 31.1961C2.72239 31.1221 2.91386 31.084 3.10723 31.084C3.3006 31.084 3.49207 31.1221 3.67072 31.1961C3.84937 31.2701 4.01169 31.3786 4.14842 31.5153C4.28515 31.652 4.39361 31.8143 4.46761 31.993C4.54161 32.1716 4.57969 32.3631 4.57969 32.5565Z" fill="white"/>
<path d="M25.3175 5.53041C25.1307 5.58046 24.9359 5.59322 24.7442 5.56798C24.5525 5.54274 24.3676 5.47998 24.2001 5.38329C24.0327 5.28661 23.8859 5.15792 23.7682 5.00451C23.6505 4.8511 23.5641 4.67598 23.5141 4.4892C23.413 4.11199 23.4659 3.71007 23.6612 3.37187C23.8564 3.03368 24.178 2.78686 24.5552 2.68579C24.9325 2.58472 25.3344 2.63766 25.6726 2.83292C26.0108 3.02817 26.2576 3.34979 26.3586 3.727C26.4087 3.91378 26.4215 4.10861 26.3962 4.30033C26.371 4.49204 26.3082 4.67687 26.2116 4.84433C26.1149 5.01179 25.9861 5.15859 25.8327 5.2763C25.6793 5.39402 25.5042 5.48037 25.3175 5.53041V5.53041Z" fill="white"/>
<path d="M18.5693 8.32569C18.2311 8.52095 17.8292 8.57387 17.452 8.4728C17.0748 8.37173 16.7532 8.12496 16.5579 7.78676C16.4612 7.6193 16.3985 7.43444 16.3732 7.24273C16.348 7.05101 16.3608 6.85619 16.4108 6.66942C16.4609 6.48264 16.5472 6.30753 16.6649 6.15412C16.7826 6.00071 16.9294 5.87199 17.0969 5.77531C17.2643 5.67862 17.4492 5.61588 17.6409 5.59064C17.8326 5.5654 18.0274 5.57818 18.2142 5.62823C18.401 5.67828 18.5761 5.76462 18.7295 5.88233C18.8829 6.00005 19.0116 6.14681 19.1083 6.31427C19.3036 6.65248 19.3565 7.0544 19.2554 7.43162C19.1543 7.80883 18.9075 8.13043 18.5693 8.32569Z" fill="white"/>
<path d="M12.7746 12.772C12.4985 13.0481 12.1239 13.2033 11.7334 13.2033C11.3429 13.2033 10.9684 13.0481 10.6923 12.772C10.5555 12.6353 10.447 12.473 10.373 12.2943C10.299 12.1157 10.261 11.9242 10.261 11.7308C10.261 11.5375 10.299 11.346 10.373 11.1673C10.447 10.9887 10.5555 10.8263 10.6922 10.6896C10.9684 10.4135 11.3429 10.2584 11.7334 10.2584C12.1239 10.2584 12.4985 10.4135 12.7746 10.6896C13.0507 10.9658 13.2059 11.3403 13.2059 11.7308C13.2059 12.1213 13.0507 12.4959 12.7746 12.772V12.772Z" fill="white"/>
<path d="M8.32781 18.566C8.13256 18.9042 7.81095 19.151 7.43374 19.2521C7.05653 19.3532 6.6546 19.3003 6.3164 19.105C6.14893 19.0083 6.00217 18.8796 5.88446 18.7262C5.76674 18.5728 5.6804 18.3977 5.63035 18.2109C5.58031 18.0241 5.56752 17.8293 5.59277 17.6376C5.61801 17.4459 5.68074 17.261 5.77743 17.0936C5.87411 16.9261 6.00283 16.7793 6.15624 16.6616C6.30965 16.5439 6.48476 16.4576 6.67154 16.4075C6.85832 16.3575 7.05314 16.3447 7.24485 16.3699C7.43657 16.3952 7.62142 16.4579 7.78888 16.5546C8.12708 16.7499 8.37385 17.0715 8.47493 17.4487C8.576 17.8259 8.52308 18.2278 8.32781 18.566V18.566Z" fill="white"/>
<path d="M5.53281 25.3154C5.48277 25.5022 5.3964 25.6773 5.27869 25.8307C5.16098 25.9841 5.01421 26.1128 4.84675 26.2095C4.67929 26.3061 4.49443 26.3689 4.30272 26.3942C4.11101 26.4194 3.91619 26.4066 3.72941 26.3566C3.54263 26.3065 3.36754 26.2202 3.21413 26.1025C3.06072 25.9848 2.93202 25.838 2.83533 25.6705C2.73865 25.503 2.67589 25.3182 2.65065 25.1265C2.62541 24.9348 2.63818 24.74 2.68823 24.5532C2.73827 24.3664 2.82464 24.1913 2.94235 24.0379C3.06006 23.8845 3.20683 23.7558 3.37429 23.6591C3.54175 23.5624 3.72661 23.4996 3.91832 23.4744C4.11003 23.4492 4.30485 23.4619 4.49163 23.512C4.67841 23.562 4.85351 23.6484 5.00691 23.7661C5.16032 23.8838 5.28902 24.0306 5.38571 24.198C5.48239 24.3655 5.54515 24.5503 5.57039 24.742C5.59563 24.9338 5.58286 25.1286 5.53281 25.3154V25.3154Z" fill="white"/>
<path d="M5.53331 39.7988C5.58336 39.9856 5.59612 40.1804 5.57089 40.3721C5.54565 40.5638 5.48289 40.7486 5.3862 40.9161C5.28952 41.0836 5.16082 41.2304 5.00741 41.3481C4.854 41.4658 4.6789 41.5521 4.49212 41.6022C4.30535 41.6522 4.11053 41.665 3.91882 41.6398C3.7271 41.6145 3.54225 41.5517 3.37479 41.4551C3.20733 41.3584 3.06056 41.2297 2.94285 41.0763C2.82513 40.9229 2.73877 40.7478 2.68872 40.561C2.58766 40.1838 2.64057 39.7818 2.83583 39.4437C3.03109 39.1055 3.3527 38.8586 3.72991 38.7576C4.10712 38.6565 4.50905 38.7094 4.84725 38.9047C5.18545 39.1 5.43223 39.4216 5.53331 39.7988V39.7988Z" fill="white"/>
<path d="M8.32856 46.5469C8.52382 46.8851 8.57675 47.287 8.47567 47.6642C8.3746 48.0414 8.1278 48.363 7.78961 48.5583C7.45141 48.7535 7.0495 48.8064 6.67229 48.7054C6.29507 48.6043 5.97348 48.3575 5.77821 48.0193C5.68153 47.8519 5.61875 47.667 5.59351 47.4753C5.56827 47.2836 5.58105 47.0888 5.6311 46.902C5.68115 46.7152 5.76749 46.5401 5.88521 46.3867C6.00292 46.2333 6.1497 46.1046 6.31717 46.0079C6.65537 45.8127 7.05728 45.7597 7.43449 45.8608C7.8117 45.9619 8.1333 46.2087 8.32856 46.5469V46.5469Z" fill="white"/>
<path d="M12.775 52.3416C13.0511 52.6178 13.2062 52.9923 13.2062 53.3828C13.2062 53.7733 13.0511 54.1478 12.775 54.424C12.4988 54.7001 12.1243 54.8553 11.7338 54.8553C11.3433 54.8553 10.9687 54.7002 10.6926 54.424C10.5558 54.2873 10.4474 54.125 10.3734 53.9463C10.2994 53.7677 10.2613 53.5762 10.2613 53.3828C10.2613 53.1894 10.2994 52.998 10.3734 52.8193C10.4474 52.6407 10.5558 52.4783 10.6926 52.3416C10.8293 52.2049 10.9916 52.0964 11.1703 52.0224C11.3489 51.9484 11.5404 51.9104 11.7338 51.9104C11.9271 51.9104 12.1186 51.9484 12.2973 52.0224C12.4759 52.0964 12.6383 52.2049 12.775 52.3416V52.3416Z" fill="white"/>
<path d="M18.5689 56.7875C18.9071 56.9827 19.1539 57.3043 19.255 57.6815C19.3561 58.0587 19.3031 58.4607 19.1079 58.7989C18.9126 59.1371 18.591 59.3838 18.2138 59.4849C17.8366 59.586 17.4347 59.5331 17.0965 59.3378C16.929 59.2411 16.7823 59.1124 16.6645 58.959C16.5468 58.8056 16.4605 58.6305 16.4104 58.4437C16.3604 58.257 16.3476 58.0621 16.3728 57.8704C16.3981 57.6787 16.4608 57.4938 16.5575 57.3264C16.7528 56.9882 17.0744 56.7414 17.4516 56.6403C17.8288 56.5393 18.2307 56.5922 18.5689 56.7875Z" fill="white"/>
<path d="M25.3173 59.5834C25.5041 59.6334 25.6792 59.7198 25.8326 59.8375C25.986 59.9552 26.1147 60.102 26.2114 60.2694C26.3081 60.4369 26.3708 60.6217 26.3961 60.8134C26.4213 61.0052 26.4086 61.2 26.3585 61.3868C26.3085 61.5735 26.2221 61.7487 26.1044 61.9021C25.9867 62.0555 25.8399 62.1842 25.6724 62.2809C25.505 62.3775 25.3201 62.4403 25.1284 62.4655C24.9367 62.4908 24.7419 62.478 24.5551 62.428C24.3683 62.3779 24.1932 62.2916 24.0398 62.1739C23.8864 62.0561 23.7577 61.9094 23.661 61.7419C23.5643 61.5744 23.5016 61.3896 23.4763 61.1979C23.4511 61.0062 23.4639 60.8113 23.5139 60.6246C23.564 60.4378 23.6503 60.2627 23.768 60.1093C23.8858 59.9558 24.0325 59.8272 24.2 59.7305C24.3674 59.6338 24.5523 59.571 24.744 59.5458C24.9357 59.5205 25.1305 59.5333 25.3173 59.5834V59.5834Z" fill="white"/>
<path d="M32.5322 13.3966C32.1425 13.4023 31.771 13.5622 31.499 13.8414C31.227 14.1205 31.0767 14.4961 31.0811 14.8858V32.5597C31.0829 32.9496 31.2393 33.3229 31.5159 33.5977L40.3475 42.4347C40.4841 42.5717 40.6464 42.6805 40.8252 42.7548C41.0039 42.8291 41.1955 42.8676 41.3891 42.8679C41.5826 42.8681 41.7743 42.8303 41.9532 42.7564C42.1322 42.6826 42.2948 42.5743 42.4318 42.4376C42.5689 42.3009 42.6777 42.1385 42.7519 41.9597C42.8262 41.781 42.8646 41.5894 42.8648 41.3959C42.8651 41.2023 42.8272 41.0106 42.7533 40.8317C42.6795 40.6528 42.5711 40.4902 42.4344 40.3532L34.0268 31.9456V14.8858C34.029 14.6891 33.9919 14.494 33.9175 14.312C33.8431 14.13 33.733 13.9647 33.5937 13.8259C33.4544 13.6871 33.2887 13.5776 33.1064 13.5039C32.9241 13.4302 32.7289 13.3937 32.5322 13.3966V13.3966Z" fill="white"/>
</svg>
