<svg width="24" height="24" viewBox="0 0 24 24" fill="none" xmlns="http://www.w3.org/2000/svg">
<path d="M23 5.13023C22.1906 5.49231 21.3214 5.73669 20.4075 5.84538C21.3393 5.28323 22.0551 4.39292 22.3928 3.33231C21.5201 3.85223 20.5546 4.23162 19.5266 4.43446C18.7027 3.55177 17.5296 3 16.2306 3C13.7377 3 11.7181 5.034 11.7181 7.54362C11.7181 7.89946 11.7573 8.247 11.8343 8.57931C8.08302 8.38962 4.75744 6.58062 2.53076 3.83146C2.14291 4.503 1.9201 5.28323 1.9201 6.11608C1.9201 7.69315 2.71712 9.08331 3.92742 9.89885C3.18817 9.87462 2.49225 9.67108 1.88366 9.33046C1.88297 9.34915 1.88297 9.36923 1.88297 9.38723C1.88297 11.5895 3.43848 13.4262 5.50356 13.8436C5.12534 13.9468 4.72649 14.0028 4.31458 14.0028C4.02301 14.0028 3.74106 13.9745 3.46599 13.9218C4.03951 15.726 5.70711 17.04 7.68142 17.0774C6.1376 18.2958 4.19149 19.0235 2.07689 19.0235C1.71243 19.0235 1.35278 19.002 1 18.9598C2.997 20.2475 5.36947 21 7.91867 21C16.2202 21 20.7609 14.0762 20.7609 8.07115C20.7609 7.87454 20.7554 7.67792 20.7472 7.48269C21.6295 6.84231 22.3942 6.04269 23 5.13023Z" fill="#0D0D13"/>
</svg>
