<?xml version="1.0" encoding="UTF-8"?>
<svg width="193px" height="27px" viewBox="0 0 193 27" version="1.1" xmlns="http://www.w3.org/2000/svg" xmlns:xlink="http://www.w3.org/1999/xlink">
    <!-- Generator: Sketch 52.3 (67297) - http://www.bohemiancoding.com/sketch -->
    <title>RatedPeople_logo</title>
    <desc>Created with Sketch.</desc>
    <g id="Page-1" stroke="none" stroke-width="1" fill="none" fill-rule="evenodd">
        <g id="BlackBG/RP-logo-wordmark---white">
            <path d="M63.8867688,21.5356144 C63.2653168,21.5356144 62.6886007,21.4602057 62.157429,21.3099268 C61.6259879,21.159648 61.165693,20.9148389 60.7768138,20.5763076 C60.3876652,20.2377762 60.0887969,19.7912488 59.880209,19.2361866 C59.6713515,18.6813938 59.5670575,17.9900573 59.5670575,17.1621771 L59.5670575,9.31832212 L57.6752131,9.31832212 L57.6752131,6.38384507 L59.5670575,6.38384507 L59.5670575,2.29238259 L63.0117234,2.29238259 L63.0117234,6.38384507 L67.0209782,6.38384507 L67.0209782,9.31832212 L63.0117234,9.31832212 L63.0117234,16.6262365 C63.0117234,17.2847163 63.1712636,17.7597913 63.4916914,18.0511922 C63.8113107,18.3428624 64.2632513,18.4882936 64.8467047,18.4882936 C65.580805,18.4882936 66.286878,18.3191625 66.9643846,17.9806312 L66.9643846,20.7739862 C66.5310391,21.0185259 66.0702052,21.2070478 65.580805,21.3382051 C65.0911353,21.4696317 64.5265464,21.5356144 63.8867688,21.5356144" id="Fill-6" fill="#FFFFFF" fill-rule="evenodd"></path>
            <path d="M78.4346748,12.7889283 C78.3780811,12.2432923 78.2554616,11.7307822 78.0676246,11.2508595 C77.8789792,10.7714754 77.6251163,10.3578046 77.3052275,10.0095778 C76.9850692,9.66162038 76.6037359,9.38422396 76.1617666,9.17738858 C75.7192583,8.97028387 75.2158444,8.86659686 74.6512555,8.86659686 C73.5967275,8.86659686 72.7265329,9.22936674 72.039594,9.95302128 C71.3523856,10.6774838 70.9335927,11.6225168 70.7832153,12.7889283 L78.4346748,12.7889283 Z M75.0466025,21.6203684 C73.9734794,21.6203684 72.971233,21.4318466 72.039594,21.0561495 C71.107955,20.6799138 70.298127,20.1531299 69.6111881,19.4757979 C68.9239797,18.7987352 68.3831062,17.9853981 67.9877592,17.035248 C67.5924123,16.0856366 67.3948735,15.0369166 67.3948735,13.8890879 L67.3948735,13.8325314 C67.3948735,12.7606501 67.5735477,11.7544821 67.9314351,10.8137581 C68.2887835,9.87357279 68.7927363,9.050271 69.4419462,8.34493001 C70.0914255,7.63931971 70.8581345,7.08479619 71.7431512,6.68001288 C72.6276288,6.2757682 73.6064292,6.0735112 74.6795523,6.0735112 C75.8650543,6.0735112 76.9050297,6.28977268 77.7994786,6.72256495 C78.693119,7.15535722 79.4369211,7.73815901 80.0298068,8.47204759 C80.6226925,9.20539754 81.0697822,10.0567083 81.371076,11.0254412 C81.6718307,11.9941741 81.8227471,13.0146159 81.8227471,14.0867665 C81.8227471,14.237584 81.8176267,14.3927105 81.8087334,14.5521461 C81.7987621,14.7123897 81.7847485,14.876673 81.7664229,15.0460733 L70.8115121,15.0460733 C70.9993491,16.2690414 71.4841679,17.2043791 72.2654296,17.8534328 C73.0464217,18.5024866 73.9920744,18.8267441 75.1029266,18.8267441 C75.9499447,18.8267441 76.684045,18.6767346 77.3052275,18.3756383 C77.92641,18.0748113 78.5378908,17.6325929 79.1404783,17.0495218 L81.1452404,18.8267441 C80.4294657,19.6734765 79.5778662,20.3508085 78.589903,20.8584709 C77.6016704,21.3664026 76.4202109,21.6203684 75.0466025,21.6203684 L75.0466025,21.6203684 Z" id="Fill-8" fill="#FFFFFF" fill-rule="evenodd"></path>
            <path d="M90.5325884,18.6294695 C91.0952908,18.6294695 91.6391287,18.5166257 92.164641,18.2909381 C92.6896143,18.0652506 93.1493702,17.7407237 93.5433697,17.3173575 C93.9373692,16.8942606 94.2513292,16.3911767 94.4863275,15.8081055 C94.7207868,15.2253038 94.838286,14.57625 94.838286,13.8609443 L94.838286,13.8046571 C94.838286,13.08989 94.7207868,12.4362578 94.4863275,11.8434913 C94.2513292,11.2509941 93.9373692,10.7479101 93.5433697,10.33397 C93.1493702,9.92056859 92.6896143,9.60035078 92.164641,9.37466321 C91.6391287,9.14897564 91.0952908,9.03613186 90.5325884,9.03613186 C89.9507519,9.03613186 89.4023326,9.14466657 88.8859831,9.36065873 C88.369903,9.57692021 87.914998,9.89229031 87.5209985,10.3056918 C87.1272685,10.7199012 86.817351,11.2227158 86.5923239,11.8154824 C86.3675663,12.4079796 86.254918,13.0710378 86.254918,13.8046571 L86.254918,13.8609443 C86.254918,14.57625 86.3675663,15.2293435 86.5923239,15.8218407 C86.817351,16.4146072 87.1272685,16.9179605 87.5209985,17.3316313 C87.914998,17.7455714 88.369903,18.0652506 88.8859831,18.2909381 C89.4023326,18.5166257 89.9507519,18.6294695 90.5325884,18.6294695 M89.7278808,21.5922248 C88.8425946,21.5922248 87.9864138,21.4228245 87.1585297,21.0842931 C86.3301067,20.7457618 85.5957369,20.2472562 84.9559594,19.5887763 C84.3159123,18.9305658 83.7987543,18.1218071 83.4034073,17.162231 C83.0080603,16.2029241 82.8105216,15.1024952 82.8105216,13.8609443 L82.8105216,13.8046571 C82.8105216,12.5631061 83.00294,11.4626772 83.3880462,10.5033704 C83.7723439,9.54379423 84.2841121,8.73530487 84.9230811,8.07682503 C85.5615112,7.4186145 86.2988455,6.91983959 87.1342753,6.58130823 C87.9697052,6.24277688 88.828581,6.07337654 89.7114417,6.07337654 C90.9317082,6.07337654 91.9458123,6.33703779 92.7534843,6.86328303 C93.5606173,7.39033623 94.2367765,8.00168561 94.7816924,8.6976005 L94.7816924,0.684345185 L98.2260888,0.684345185 L98.2260888,21.2817024 L94.7816924,21.2817024 L94.8099892,18.7986005 C94.2637259,19.5701934 93.5816378,20.228404 92.7629166,20.77404 C91.9441953,21.3194068 90.9322472,21.5922248 89.7278808,21.5922248" id="Fill-10" fill="#FFFFFF" fill-rule="evenodd"></path>
            <path d="M115.808492,18.6294695 C116.391676,18.6294695 116.94252,18.5166257 117.460217,18.2909381 C117.977914,18.0652506 118.429316,17.7504191 118.8155,17.3456358 C119.201145,16.9413911 119.50729,16.4428855 119.733125,15.850119 C119.958961,15.2576218 120.071879,14.5945635 120.071879,13.8609443 L120.071879,13.8046571 C120.071879,13.08989 119.958961,12.4362578 119.733125,11.8434913 C119.50729,11.2509941 119.201145,10.7479101 118.8155,10.33397 C118.429316,9.92056859 117.977914,9.60035078 117.460217,9.37466321 C116.94252,9.14897564 116.391676,9.03613186 115.808492,9.03613186 C115.225038,9.03613186 114.669343,9.14897564 114.142752,9.37466321 C113.615623,9.60035078 113.15452,9.92487766 112.759173,10.3482438 C112.364095,10.7713407 112.048518,11.274694 111.81325,11.8574958 C111.577983,12.4411055 111.460483,13.08989 111.460483,13.8046571 L111.460483,13.8609443 C111.460483,14.57625 111.577983,15.2293435 111.81325,15.8218407 C112.048518,16.4146072 112.364095,16.9179605 112.759173,17.3316313 C113.15452,17.7455714 113.615623,18.0652506 114.142752,18.2909381 C114.669343,18.5166257 115.225038,18.6294695 115.808492,18.6294695 L115.808492,18.6294695 Z M108.100708,6.38389894 L111.545104,6.38389894 L111.545104,8.86673152 C112.089751,8.07682503 112.766179,7.4137668 113.573312,6.87755683 C114.380446,6.34161618 115.385387,6.07337654 116.587058,6.07337654 C117.46938,6.07337654 118.324213,6.24277688 119.15048,6.58130823 C119.976478,6.91983959 120.714082,7.4186145 121.361675,8.07682503 C122.008998,8.73530487 122.530468,9.54379423 122.924737,10.5033704 C123.319275,11.4626772 123.516545,12.5631061 123.516545,13.8046571 L123.516545,13.8609443 C123.516545,15.1024952 123.323857,16.2029241 122.93902,17.162231 C122.553914,18.1218071 122.037295,18.9305658 121.389702,19.5887763 C120.74184,20.2472562 119.999924,20.7457618 119.164494,21.0842931 C118.329064,21.4228245 117.46938,21.5922248 116.587058,21.5922248 C115.366522,21.5922248 114.352149,21.3285635 113.545016,20.802049 C112.737883,20.2755344 112.070886,19.6641851 111.545104,18.9680008 L111.545104,25.7962618 L108.100708,25.7962618 L108.100708,6.38389894 Z" id="Fill-12" fill="#FFFFFF" fill-rule="evenodd"></path>
            <path d="M135.54439,12.7889283 C135.487796,12.2432923 135.365177,11.7307822 135.17734,11.2508595 C134.988694,10.7714754 134.734831,10.3578046 134.414943,10.0095778 C134.094784,9.66162038 133.713451,9.38422396 133.271482,9.17738858 C132.828973,8.97028387 132.32556,8.86659686 131.760971,8.86659686 C130.706443,8.86659686 129.836248,9.22936674 129.149309,9.95302128 C128.462101,10.6774838 128.043308,11.6225168 127.89293,12.7889283 L135.54439,12.7889283 Z M132.156318,21.6203684 C131.083195,21.6203684 130.080948,21.4318466 129.149309,21.0561495 C128.21767,20.6799138 127.407842,20.1531299 126.720903,19.4757979 C126.033695,18.7987352 125.492821,17.9853981 125.097474,17.035248 C124.702127,16.0856366 124.504589,15.0369166 124.504589,13.8890879 L124.504589,13.8325314 C124.504589,12.7606501 124.683263,11.7544821 125.04115,10.8137581 C125.398499,9.87357279 125.902451,9.050271 126.551661,8.34493001 C127.201141,7.63931971 127.96785,7.08479619 128.852866,6.68001288 C129.737344,6.2757682 130.716144,6.0735112 131.789267,6.0735112 C132.974769,6.0735112 134.014745,6.28977268 134.909194,6.72256495 C135.802834,7.15535722 136.546636,7.73815901 137.139522,8.47204759 C137.732408,9.20539754 138.179497,10.0567083 138.480791,11.0254412 C138.781546,11.9941741 138.932462,13.0146159 138.932462,14.0867665 C138.932462,14.237584 138.927342,14.3927105 138.918449,14.5521461 C138.908477,14.7123897 138.894464,14.876673 138.876138,15.0460733 L127.921227,15.0460733 C128.109064,16.2690414 128.593883,17.2043791 129.375145,17.8534328 C130.156137,18.5024866 131.10179,18.8267441 132.212642,18.8267441 C133.05966,18.8267441 133.79376,18.6767346 134.414943,18.3756383 C135.036125,18.0748113 135.647606,17.6325929 136.250193,17.0495218 L138.254956,18.8267441 C137.539181,19.6734765 136.687581,20.3508085 135.699618,20.8584709 C134.711386,21.3664026 133.529926,21.6203684 132.156318,21.6203684 L132.156318,21.6203684 Z" id="Fill-15" fill="#FFFFFF" fill-rule="evenodd"></path>
            <path d="M147.825667,18.6577208 C148.517457,18.6577208 149.139448,18.5306032 149.69137,18.2766374 C150.243024,18.0229409 150.715715,17.6798311 151.108367,17.2467695 C151.501019,16.8145159 151.800427,16.3111626 152.00605,15.7375176 C152.211674,15.1638726 152.31489,14.5571016 152.31489,13.9174739 L152.31489,13.8609174 C152.31489,13.2029761 152.202241,12.5819314 151.978292,11.9988602 C151.753804,11.4160585 151.440653,10.9081268 151.038299,10.4753345 C150.635676,10.0425422 150.158942,9.69916316 149.607019,9.44546663 C149.055366,9.19123147 148.442807,9.0643832 147.769882,9.0643832 C147.096148,9.0643832 146.48332,9.19123147 145.931397,9.44546663 C145.379474,9.69916316 144.907052,10.0376945 144.5144,10.4610607 C144.121748,10.8841576 143.822071,11.3877802 143.616448,11.970582 C143.411094,12.5536531 143.308417,13.1652718 143.308417,13.8046301 L143.308417,13.8609174 C143.308417,14.5196665 143.420257,15.1355943 143.644745,15.7092393 C143.868963,16.2831536 144.182384,16.7910853 144.584469,17.2327651 C144.986822,17.6749834 145.463556,18.0229409 146.015479,18.2766374 C146.567402,18.5306032 147.170798,18.6577208 147.825667,18.6577208 M147.769073,21.6204761 C146.639895,21.6204761 145.590488,21.4179498 144.62112,21.0137052 C143.651213,20.6094605 142.814166,20.059246 142.108093,19.3630618 C141.402289,18.6674162 140.851714,17.8492315 140.456367,16.9082382 C140.06102,15.9677835 139.863481,14.9710417 139.863481,13.9174739 L139.863481,13.8609174 C139.863481,12.7890361 140.065602,11.7828681 140.47065,10.8418748 C140.87516,9.90142016 141.430586,9.07838768 142.13639,8.3730467 C142.842193,7.66770571 143.679509,7.10833449 144.649416,6.69412508 C145.618515,6.28072363 146.677355,6.07361892 147.825667,6.07361892 C148.97344,6.07361892 150.03228,6.27560661 151.001917,6.6801206 C151.971285,7.08490392 152.809141,7.63942744 153.514944,8.34476842 C154.220748,9.05037872 154.771323,9.86829418 155.16667,10.799592 C155.562017,11.7308899 155.759556,12.7324795 155.759556,13.8046301 L155.759556,13.8609174 C155.759556,14.9147544 155.557166,15.9114963 155.152387,16.8516816 C154.747607,17.7926749 154.192451,18.6154381 153.486647,19.3207791 C152.780844,20.02612 151.938138,20.5860299 150.959876,20.9997007 C149.980537,21.4131021 148.916846,21.6204761 147.769073,21.6204761" id="Fill-17" fill="#FFFFFF" fill-rule="evenodd"></path>
            <path d="M164.630365,18.6294695 C165.213549,18.6294695 165.764394,18.5166257 166.282091,18.2909381 C166.799518,18.0652506 167.251729,17.7504191 167.637643,17.3456358 C168.02248,16.9413911 168.329164,16.4428855 168.555269,15.850119 C168.781374,15.2576218 168.894291,14.5945635 168.894291,13.8609443 L168.894291,13.8046571 C168.894291,13.08989 168.781374,12.4362578 168.555269,11.8434913 C168.329164,11.2509941 168.02248,10.7479101 167.637643,10.33397 C167.251729,9.92056859 166.799518,9.60035078 166.282091,9.37466321 C165.764394,9.14897564 165.213549,9.03613186 164.630365,9.03613186 C164.046912,9.03613186 163.491216,9.14897564 162.964626,9.37466321 C162.437497,9.60035078 161.976393,9.92487766 161.581046,10.3482438 C161.185969,10.7713407 160.870392,11.274694 160.635124,11.8574958 C160.399856,12.4411055 160.282357,13.08989 160.282357,13.8046571 L160.282357,13.8609443 C160.282357,14.57625 160.399856,15.2293435 160.635124,15.8218407 C160.870392,16.4146072 161.185969,16.9179605 161.581046,17.3316313 C161.976393,17.7455714 162.437497,18.0652506 162.964626,18.2909381 C163.491216,18.5166257 164.046912,18.6294695 164.630365,18.6294695 L164.630365,18.6294695 Z M156.922582,6.38389894 L160.366978,6.38389894 L160.366978,8.86673152 C160.911624,8.07682503 161.588053,7.4137668 162.395186,6.87755683 C163.202319,6.34161618 164.207261,6.07337654 165.408932,6.07337654 C166.291254,6.07337654 167.145818,6.24277688 167.971815,6.58130823 C168.798082,6.91983959 169.535147,7.4186145 170.183548,8.07682503 C170.830333,8.73530487 171.352342,9.54379423 171.746611,10.5033704 C172.141149,11.4626772 172.338418,12.5631061 172.338418,13.8046571 L172.338418,13.8609443 C172.338418,15.1024952 172.146,16.2029241 171.761163,17.162231 C171.376327,18.1218071 170.859169,18.9305658 170.211037,19.5887763 C169.563983,20.2472562 168.822067,20.7457618 167.986368,21.0842931 C167.150669,21.4228245 166.291254,21.5922248 165.408932,21.5922248 C164.188396,21.5922248 163.174022,21.3285635 162.366889,20.802049 C161.559756,20.2755344 160.89276,19.6641851 160.366978,18.9680008 L160.366978,25.7962618 L156.922582,25.7962618 L156.922582,6.38389894 Z" id="Fill-19" fill="#FFFFFF" fill-rule="evenodd"></path>
            <polygon id="Fill-22" fill="#FFFFFF" fill-rule="evenodd" points="173.727442 21.281864 177.172108 21.281864 177.172108 0.684237458 173.727442 0.684237458"></polygon>
            <path d="M189.515557,12.7889283 C189.458963,12.2432923 189.336344,11.7307822 189.148776,11.2508595 C188.96067,10.7714754 188.706268,10.3578046 188.386379,10.0095778 C188.065951,9.66162038 187.684618,9.38422396 187.242649,9.17738858 C186.80014,8.97028387 186.296996,8.86659686 185.732407,8.86659686 C184.67761,8.86659686 183.807684,9.22936674 183.121015,9.95302128 C182.433268,10.6774838 182.014744,11.6225168 181.864367,12.7889283 L189.515557,12.7889283 Z M186.127485,21.6203684 C185.054631,21.6203684 184.052385,21.4318466 183.121015,21.0561495 C182.189107,20.6799138 181.379818,20.1531299 180.69234,19.4757979 C180.005131,18.7987352 179.464797,17.9853981 179.068911,17.035248 C178.674103,16.0856366 178.476295,15.0369166 178.476295,13.8890879 L178.476295,13.8325314 C178.476295,12.7606501 178.654699,11.7544821 179.012587,10.8137581 C179.369666,9.87357279 179.873618,9.050271 180.522828,8.34493001 C181.172308,7.63931971 181.939556,7.08479619 182.824033,6.68001288 C183.70905,6.2757682 184.68785,6.0735112 185.760704,6.0735112 C186.946206,6.0735112 187.986451,6.28977268 188.88063,6.72256495 C189.774001,7.15535722 190.517803,7.73815901 191.110689,8.47204759 C191.704114,9.20539754 192.150934,10.0567083 192.452228,11.0254412 C192.752713,11.9941741 192.903629,13.0146159 192.903629,14.0867665 C192.903629,14.237584 192.899048,14.3927105 192.889885,14.5521461 C192.880183,14.7123897 192.8659,14.876673 192.847305,15.0460733 L181.892664,15.0460733 C182.080231,16.2690414 182.565319,17.2043791 183.346581,17.8534328 C184.127573,18.5024866 185.073226,18.8267441 186.183809,18.8267441 C187.031096,18.8267441 187.765197,18.6767346 188.386379,18.3756383 C189.007562,18.0748113 189.619042,17.6325929 190.22136,17.0495218 L192.226122,18.8267441 C191.510617,19.6734765 190.659287,20.3508085 189.671324,20.8584709 C188.682822,21.3664026 187.501362,21.6203684 186.127485,21.6203684 L186.127485,21.6203684 Z" id="Fill-24" fill="#FFFFFF" fill-rule="evenodd"></path>
            <path d="M52.9082235,13.8891418 C52.9082235,14.6044475 52.7907243,15.257541 52.555187,15.8500382 C52.3201886,16.4428047 52.0046118,16.946158 51.6095343,17.3598288 C51.2141873,17.7737689 50.7530839,18.093448 50.2259547,18.3191356 C49.6990949,18.5448232 49.1436688,18.657667 48.5602153,18.657667 C47.9767619,18.657667 47.4261867,18.5448232 46.9084897,18.3191356 C46.3907926,18.093448 45.9391215,17.7786166 45.5532068,17.3738333 C45.1675616,16.9695886 44.861417,16.471083 44.6355815,15.8783165 C44.4094764,15.2858193 44.2968281,14.622761 44.2968281,13.8891418 L44.2968281,13.8328545 C44.2968281,13.1180875 44.4094764,12.4644553 44.6355815,11.8716888 C44.861417,11.2791916 45.1675616,10.7763769 45.5532068,10.3621675 C45.9391215,9.94876607 46.3907926,9.62854826 46.9084897,9.40286069 C47.4261867,9.17744244 47.9767619,9.06432934 48.5602153,9.06432934 C49.1436688,9.06432934 49.6990949,9.17744244 50.2259547,9.40286069 C50.7530839,9.62854826 51.2141873,9.95307514 51.6095343,10.3764413 C52.0046118,10.7998075 52.3201886,11.3028915 52.555187,11.8856933 C52.7907243,12.469303 52.9082235,13.1180875 52.9082235,13.8328545 L52.9082235,13.8891418 Z M56.2679989,6.4834654 L52.823872,6.4834654 L52.823333,8.894929 C52.2789561,8.10502251 51.6025275,7.44196428 50.7953944,6.90575431 C49.9882614,6.36981366 48.9830506,6.10184334 47.7813791,6.10184334 C46.8990574,6.10184334 46.0444935,6.27097436 45.2182264,6.60950571 C44.4499005,6.92433718 43.7618835,7.38379183 43.1479774,7.97494244 C43.1016245,8.01964905 43.0525767,8.05896932 43.0070323,8.10502251 C42.3594394,8.76350235 41.8382389,9.57199171 41.4437005,10.5318372 C41.3590795,10.7375953 41.2873942,10.9527795 41.2216378,11.1720035 C41.1946885,11.2603394 41.170973,11.3505606 41.1469881,11.4407817 C41.1146489,11.5660141 41.0855436,11.6936703 41.0585942,11.8229424 C40.9947243,12.125116 40.94379,12.4364464 40.9109118,12.7607039 C40.9106423,12.7617812 40.9106423,12.7631278 40.9103728,12.764205 L40.9103728,12.7644744 C40.8753387,13.1092 40.8521622,13.4628131 40.8521622,13.8328545 L40.8521622,13.8891418 C40.8521622,15.130962 41.0448501,16.2311216 41.4296868,17.1904284 C41.814793,18.1500046 42.3311426,18.9587633 42.9787354,19.6169738 C43.6265978,20.2754536 44.3685134,20.7739592 45.2042128,21.1124906 C46.0396426,21.4512913 46.8990574,21.6204223 47.7813791,21.6204223 C49.0019152,21.6204223 50.0162887,21.356761 50.8236912,20.8302465 C51.6308243,20.3037319 52.2975512,19.6923825 52.823333,18.9961983 L52.823872,21.2967034 L56.2682684,21.307476 L56.2679989,6.4834654 Z" id="Fill-25" fill="#FFFFFF" fill-rule="evenodd"></path>
            <path d="M39.8780241,10.8725231 C39.9464754,10.6541071 40.0162742,10.4367683 40.1011647,10.2304716 C40.5323543,9.18094356 41.1149992,8.27900123 41.8323909,7.54915241 C41.8860201,7.49475039 41.9442307,7.44815857 41.9989379,7.39564177 C41.1133823,6.61327615 39.9375821,6.22088141 38.4699205,6.22088141 C37.889701,6.22088141 37.3698481,6.29225039 36.9109006,6.43444972 C36.4522227,6.57637973 36.0307349,6.77055722 35.6467066,7.01644356 C35.2626784,7.26286853 34.925542,7.54241948 34.635567,7.8548271 C34.345053,8.1669654 34.0785239,8.5030729 33.8349018,8.86288029 L33.8349018,6.53059586 L30.3980512,6.53059586 L30.3980512,21.3955427 L33.8349018,21.3955427 L33.8349018,13.0251731 C33.8349018,11.8646866 34.1421244,10.9613976 34.7568391,10.3150371 C35.3710148,9.66921512 36.1714105,9.34576551 37.1582957,9.34576551 C38.1637759,9.34576551 38.9409952,9.65951971 39.4904924,10.2867588 C39.6422173,10.4601989 39.7683402,10.6584161 39.8780241,10.8725231" id="Fill-26" fill="#FFFFFF" fill-rule="evenodd"></path>
            <g id="WhiteBG/RP-logo-mark">
                <path d="M23.1981504,25.628587 C22.8428748,25.8783155 22.4283365,26.0122335 21.994223,26.0164482 L3.03730214,26.0164482 C1.79829759,26.0164482 0.833348405,25.0522918 0.833348405,23.8179753 L0.833348405,2.77168793 C0.833348405,1.5592719 1.80011107,0.573291834 2.98688679,0.573291834 L15.1986306,0.573291834 C20.122951,0.573291834 24.1304339,4.66041277 24.1304339,9.68469193 C24.1305803,12.896034 22.8110867,15.5121238 20.3990493,17.1026962 L20.1609129,17.2597307 L23.7494196,22.5694706 C24.4240491,23.567827 24.1763935,24.9408922 23.1981504,25.628587 Z M2.98688679,2.48265699 C2.83245773,2.48265699 2.70549877,2.61213964 2.70549877,2.77168793 L2.70549877,23.8179753 C2.70549877,23.9825989 2.83849637,24.1070062 3.03730214,24.1070062 L21.9823171,24.1070387 C22.0367806,24.1062 22.089466,24.0889414 22.1356522,24.0564771 C22.198204,24.0125006 22.2395515,23.9473508 22.2533947,23.8704492 C22.2672909,23.7935075 22.2513024,23.7171884 22.2079707,23.6531183 L18.6268557,18.3561293 C18.3900245,18.0056182 18.2656285,17.652595 18.2531054,17.2835635 C18.2306999,16.6298449 18.5893884,15.9864397 19.1665023,15.6360115 C21.3516718,14.3096534 22.258404,12.1940054 22.2582082,9.68469193 C22.2582082,5.71326508 19.0905893,2.48265699 15.1986306,2.48265699 L2.98688679,2.48265699 Z M20.9378774,17.4133066 L24.2079184,22.2518282 C25.0547908,23.5050798 24.7443148,25.226438 23.5149844,26.0906446 C23.0682575,26.4046556 22.545199,26.5736314 22.0056015,26.5788304 L3.03730214,26.5789482 C1.49310771,26.5789482 0.27779285,25.3646318 0.27779285,23.8179753 L0.27779285,2.77168793 C0.27779285,1.2495223 1.49237964,0.0107918336 2.98688679,0.0107918336 L15.1986306,0.0107918336 C20.4306818,0.0107918336 24.6859895,4.35066245 24.6859895,9.68467895 C24.6861395,12.9761551 23.3621256,15.703085 20.9378774,17.4133066 Z M2.98688679,1.92015699 C2.52472629,1.92015699 2.14994322,2.30239004 2.14994322,2.77168793 L2.14994322,23.8179753 C2.14994322,24.3036451 2.54106701,24.6695062 3.03730214,24.6695062 L21.9865415,24.6695062 C22.15595,24.6669299 22.3159199,24.6145271 22.4524918,24.5185307 C22.6359579,24.3895465 22.7597794,24.1944453 22.7999173,23.9714712 C22.8401191,23.7488784 22.7925759,23.5219362 22.6663821,23.3353465 L19.0853367,18.0384605 C18.9055793,17.7724188 18.8170527,17.5211891 18.80833,17.2641515 C18.7930501,16.8183331 19.0455943,16.3653264 19.452193,16.1184364 C21.8270845,14.6769206 22.8139736,12.374245 22.8137638,9.6846697 C22.8137638,5.40351636 19.3983216,1.92015699 15.1986306,1.92015699 L2.98688679,1.92015699 Z" id="Fill-1" fill="#3B852A" fill-rule="nonzero"></path>
                <path d="M8.20373782,8.3232653 C8.20373782,7.90208747 8.53901122,7.56014947 8.95198002,7.56014947 L12.5229544,7.56014947 C14.7331665,7.56014947 16.0930245,8.5277825 16.0930245,10.4281554 L16.0930245,10.4970963 C16.0930245,12.2590492 14.8008391,13.3648716 12.556414,13.3648716 L10.4187729,13.3648716 L8.20501893,15.6140228 L8.20501893,13.3648716 L8.20373782,13.3648716 L8.20373782,8.3232653" id="Fill-4" fill="#84B818" fill-rule="evenodd"></path>
            </g>
        </g>
    </g>
</svg>