<?xml version="1.0" encoding="UTF-8"?>
<svg width="128px" height="128px" viewBox="0 0 128 128" version="1.1" xmlns="http://www.w3.org/2000/svg" xmlns:xlink="http://www.w3.org/1999/xlink">
    <!-- Generator: Sketch 50.2 (55047) - http://www.bohemiancoding.com/sketch -->
    <title>covering the uk</title>
    <desc>Created with Sketch.</desc>
    <defs></defs>
    <g id="Page-1" stroke="none" stroke-width="1" fill="none" fill-rule="evenodd">
        <g id="covering-the-uk">
            <circle id="Oval" fill="#F1C400" fill-rule="nonzero" cx="64" cy="64" r="64"></circle>
            <path d="M78.1040265,51 L62.8540265,51 C59.5587004,51 56.8866352,53.6866667 56.8866352,57 C56.8866352,60.3133333 59.5587004,63 62.8540265,63 L92.0279395,63 C95.3232656,63 97.9953308,65.6866667 97.9953308,69 C97.9953308,72.3133333 95.3232656,75 92.0279395,75 L68.1583743,75 C64.8630482,75 62.190983,77.6866667 62.190983,81 C62.190983,84.3133333 64.8630482,87 68.1583743,87 L84.0714178,87 C87.3667439,87 90.0388091,89.6866667 90.0388091,93 C90.0388091,96.3133333 87.3667439,99 84.0714178,99 L41.0299988,99" id="Stroke-54" stroke="#FBF0BF" stroke-width="3" stroke-linecap="round"></path>
            <g id="small-pin" transform="translate(74.000000, 20.000000)">
                <path d="M19.4482707,21.2968169 L11.6693178,30.1187816 L3.8917256,21.2968169 C-0.403910975,16.4244748 -0.403910975,8.52659863 3.8917256,3.65425656 C8.18736218,-1.21808552 15.1526342,-1.21808552 19.4482707,3.65425656 C23.7439073,8.52659863 23.7439073,16.4244748 19.4482707,21.2968169 Z" id="Path" fill="#FFFFFF"></path>
                <path d="M16,11 C16,13.2088889 14.2088889,15 12,15 C9.79111111,15 8,13.2088889 8,11 C8,8.79111111 9.79111111,7 12,7 C14.2088889,7 16,8.79111111 16,11 Z" id="Path" fill="#F1C400"></path>
            </g>
            <g id="large-pin" transform="translate(20.000000, 60.000000)">
                <path d="M23.8992727,27.3460455 L14,38.5981255 L4.10072727,27.3460455 C-1.36690909,21.1315987 -1.36690909,11.0563324 4.10072727,4.8431661 C9.56836364,-1.37128071 18.4316364,-1.37128071 23.8992727,4.8431661 C29.3669091,11.0563324 29.3669091,21.1315987 23.8992727,27.3460455 Z" id="Stroke-53" fill="#FFFFFF"></path>
                <path d="M19,14 C19,16.761 16.761,19 14,19 C11.239,19 9,16.761 9,14 C9,11.239 11.239,9 14,9 C16.761,9 19,11.239 19,14 Z" id="Path" fill="#F1C400"></path>
            </g>
        </g>
    </g>
</svg>