<?xml version="1.0" encoding="UTF-8"?>
<svg width="128px" height="128px" viewBox="0 0 128 128" version="1.1" xmlns="http://www.w3.org/2000/svg" xmlns:xlink="http://www.w3.org/1999/xlink">
    <!-- Generator: Sketch 50.2 (55047) - http://www.bohemiancoding.com/sketch -->
    <title>fixed pricing</title>
    <desc>Created with Sketch.</desc>
    <defs></defs>
    <g id="Page-1" stroke="none" stroke-width="1" fill="none" fill-rule="evenodd">
        <g id="fixed-pricing">
            <circle id="Oval" fill="#F1C400" fill-rule="nonzero" cx="64" cy="64" r="64"></circle>
            <g id="Group" transform="translate(22.000000, 26.000000)">
                <path d="M27.9026316,78.0162586 L0.975,50.8472069 C-0.325,49.5355517 -0.325,47.4100862 0.975,46.0997586 L39.1052632,7.31034483 L69.7368421,7.31034483 L69.7368421,39.5441379 L32.6078947,78.0162586 C31.3092105,79.3279138 29.2026316,79.3279138 27.9026316,78.0162586 Z" id="Stroke-30" stroke="#FFFFFF" stroke-width="3" fill="#FFFFFF" stroke-linecap="round"></path>
                <path d="M38.3680345,29.0000147 L28.3664247,42.8196246 C28.1355038,43.1363136 27.9219639,43.418092 27.696009,43.7397682 C26.9039252,44.8718691 27.0181442,44.5701418 28.6569382,44.5626609 L33.059335,44.5626609 C34.4175476,44.5701418 34.1692455,44.4529419 33.9581887,45.3431622 L31.5198618,55.6392952 C31.1051972,57.7040077 30.4819589,59.3522867 32.8606933,56.2502307 C32.9575311,56.12555 33.1437577,55.853746 33.2405955,55.7290653 L44.5135122,40.7349631 C45.5315509,39.3634753 45.896555,39.4532454 43.8281983,39.5255602 L38.315891,39.5255602 C37.1041766,39.5579772 37.3226825,39.7026068 37.5188412,38.7276037 L39.8553642,29.3915121 C40.5506102,26.5088941 40.8510558,25.4092103 38.3680345,29.0000147" id="Fill-26" fill="#F1C400" fill-rule="nonzero" transform="translate(36.275421, 42.353237) rotate(45.000000) translate(-36.275421, -42.353237) "></path>
                <path d="M62.0294118,20.5 C62.0294118,23.537375 59.5602022,26 56.5147059,26 C53.4692096,26 51,23.537375 51,20.5 C51,17.462625 53.4692096,15 56.5147059,15 C59.5602022,15 62.0294118,17.462625 62.0294118,20.5 Z" id="Stroke-34" fill="#F1C400"></path>
                <path d="M76.5,0.5 L60,17.5862069" id="Stroke-36" stroke="#FBF0BF" stroke-width="3" stroke-linecap="round"></path>
            </g>
        </g>
    </g>
</svg>