<?xml version="1.0" encoding="UTF-8"?>
<svg width="128px" height="128px" viewBox="0 0 128 128" version="1.1" xmlns="http://www.w3.org/2000/svg" xmlns:xlink="http://www.w3.org/1999/xlink">
    <!-- Generator: Sketch 50.2 (55047) - http://www.bohemiancoding.com/sketch -->
    <title>free quote</title>
    <desc>Created with Sketch.</desc>
    <defs></defs>
    <g id="Page-1" stroke="none" stroke-width="1" fill="none" fill-rule="evenodd">
        <g id="free-quote">
            <circle id="Oval" fill="#F1C400" fill-rule="nonzero" cx="64" cy="64" r="64"></circle>
            <g id="Group" stroke-linejoin="round" transform="translate(35.000000, 25.000000)" stroke="#FFFFFF" stroke-width="3">
                <polygon id="Path" fill="#F1C400" fill-rule="nonzero" points="59 18.5862069 40.6444444 0 0 0 0 77 59 77"></polygon>
                <polygon id="Path" points="40.6444444 0 40.6444444 18.5862069 59 18.5862069"></polygon>
            </g>
            <g id="Group" stroke-linejoin="round" transform="translate(35.000000, 25.000000)" stroke="#FFFFFF" stroke-width="3">
                <polygon id="Path" fill="#FFFFFF" fill-rule="nonzero" points="59 18.5862069 40.6444444 0 0 0 0 77 59 77"></polygon>
                <polygon id="Path" fill="#F1C400" points="40.6444444 0 40.6444444 18.5862069 59 18.5862069"></polygon>
            </g>
            <path d="M43.672,64.385 L43.672,70.664 C43.672,70.853 43.525,71 43.336,71 C43.147,71 43,70.853 43,70.664 L43,57.203 C43,57.014 43.147,56.867 43.336,56.867 L50.455,56.867 C50.623,56.867 50.749,56.993 50.749,57.161 C50.749,57.329 50.623,57.455 50.455,57.455 L43.672,57.455 L43.672,63.797 L48.964,63.797 C49.132,63.797 49.258,63.923 49.258,64.091 C49.258,64.259 49.132,64.385 48.964,64.385 L43.672,64.385 Z M55.424,57.455 L55.424,63.965 L59.561,63.965 C61.388,63.965 62.669,62.558 62.669,60.71 C62.669,58.841 61.367,57.455 59.498,57.455 L55.424,57.455 Z M55.424,64.574 L55.424,70.832 C55.424,71.021 55.277,71.168 55.088,71.168 C54.899,71.168 54.752,71.021 54.752,70.832 L54.752,57.203 C54.752,57.014 54.899,56.867 55.088,56.867 L59.498,56.867 C61.724,56.867 63.341,58.568 63.341,60.71 C63.341,62.852 61.829,64.574 59.561,64.574 L59.057,64.574 C59.057,64.574 63.593,70.706 63.53,70.622 C63.53,70.622 63.593,70.706 63.593,70.832 C63.593,71.021 63.446,71.168 63.236,71.168 C63.131,71.168 63.026,71.126 62.942,71 L58.301,64.574 L55.424,64.574 Z M74.988,71 L67.617,71 C67.428,71 67.281,70.853 67.281,70.664 L67.281,57.203 C67.281,57.014 67.428,56.867 67.617,56.867 L74.736,56.867 C74.904,56.867 75.03,56.993 75.03,57.161 C75.03,57.329 74.904,57.455 74.736,57.455 L67.953,57.455 L67.953,63.587 L73.245,63.587 C73.413,63.587 73.539,63.713 73.539,63.881 C73.539,64.049 73.413,64.175 73.245,64.175 L67.953,64.175 L67.953,70.412 L74.988,70.412 C75.156,70.412 75.282,70.538 75.282,70.706 C75.282,70.874 75.156,71 74.988,71 Z M86.74,71 L79.369,71 C79.18,71 79.033,70.853 79.033,70.664 L79.033,57.203 C79.033,57.014 79.18,56.867 79.369,56.867 L86.488,56.867 C86.656,56.867 86.782,56.993 86.782,57.161 C86.782,57.329 86.656,57.455 86.488,57.455 L79.705,57.455 L79.705,63.587 L84.997,63.587 C85.165,63.587 85.291,63.713 85.291,63.881 C85.291,64.049 85.165,64.175 84.997,64.175 L79.705,64.175 L79.705,70.412 L86.74,70.412 C86.908,70.412 87.034,70.538 87.034,70.706 C87.034,70.874 86.908,71 86.74,71 Z" id="FREE" stroke="#F1C400" stroke-width="2" fill="#F1C400" fill-rule="nonzero"></path>
        </g>
    </g>
</svg>