<?xml version="1.0" encoding="UTF-8"?>
<svg width="28px" height="28px" viewBox="0 0 28 28" version="1.1" xmlns="http://www.w3.org/2000/svg" xmlns:xlink="http://www.w3.org/1999/xlink">
    <!-- Generator: Sketch 50.2 (55047) - http://www.bohemiancoding.com/sketch -->
    <title>linkedin</title>
    <desc>Created with Sketch.</desc>
    <defs></defs>
    <g id="Symbols" stroke="none" stroke-width="1" fill="none" fill-rule="evenodd">
        <g id="linkedin" fill="#FFFFFF">
            <g>
                <rect id="Rectangle" fill-opacity="0.3" x="0" y="0" width="28" height="28"></rect>
                <g transform="translate(6.000000, 6.000000)">
                    <path d="M5.51297778,15.2464889 L8.93253333,15.2464889 L8.93253333,9.50248889 C8.93253333,9.19404444 8.95386667,8.88737778 9.04542222,8.66782222 C9.29164444,8.05271111 9.85431111,7.41715556 10.7983111,7.41715556 C12.0356444,7.41715556 12.5316444,8.36026667 12.5316444,9.74337778 L12.5316444,15.2464889 L15.9503111,15.2464889 L15.9503111,9.34782222 C15.9503111,6.18782222 14.2623111,4.71848889 12.0134222,4.71848889 C10.1689778,4.71848889 9.36008889,5.7496 8.90942222,6.45093333 L8.93253333,6.45093333 L8.93253333,4.95937778 L5.51297778,4.95937778 C5.55831111,5.92382222 5.51297778,15.2464889 5.51297778,15.2464889" id="Fill-4"></path>
                    <path d="M1.91093333,3.55511111 C3.10382222,3.55511111 3.84426667,2.76577778 3.84426667,1.77733333 C3.82382222,0.768444444 3.10382222,-0.000444444444 1.93315556,-0.000444444444 C0.763377778,-0.000444444444 -0.000177777778,0.768444444 -0.000177777778,1.77733333 C-0.000177777778,2.76577778 0.741155556,3.55511111 1.88871111,3.55511111 L1.91093333,3.55511111 Z M0.2016,15.2466667 L3.61937778,15.2466667 L3.61937778,4.95955556 L0.2016,4.95955556 L0.2016,15.2466667 Z" id="Fill-1"></path>
                </g>
            </g>
        </g>
    </g>
</svg>