<?xml version="1.0" encoding="UTF-8"?>
<svg width="128px" height="128px" viewBox="0 0 128 128" version="1.1" xmlns="http://www.w3.org/2000/svg" xmlns:xlink="http://www.w3.org/1999/xlink">
    <!-- Generator: Sketch 50.2 (55047) - http://www.bohemiancoding.com/sketch -->
    <title>highly trained</title>
    <desc>Created with Sketch.</desc>
    <defs></defs>
    <g id="Page-1" stroke="none" stroke-width="1" fill="none" fill-rule="evenodd">
        <g id="highly-trained">
            <circle id="Oval" fill="#F1C400" fill-rule="nonzero" cx="64" cy="64" r="64"></circle>
            <path d="M60.6151548,18.2679183 C57.8840984,17.9106939 55.1171396,17.9106939 52.3848452,18.2679183 L51.0886457,25.0859782 C48.9555494,25.5565291 46.894258,26.303005 44.9567678,27.3069289 L39.5590316,22.9130681 C37.2352814,24.386311 35.1158033,26.1564198 33.2538319,28.1778175 L36.6657955,34.2284607 C35.3361696,35.9529926 34.2392902,37.8438186 33.4023935,39.8528982 L26.4299049,39.937893 C25.6016743,42.5530224 25.1213253,45.2642329 25,48.0037749 L31.5230899,50.4563056 C31.6184169,52.6279839 31.9997249,54.7787215 32.6571097,56.8518552 L27.3707947,61.3775195 C28.4255817,63.9101177 29.8084421,66.2948989 31.4859495,68.4690409 L38.0684641,66.1766453 C39.5441754,67.7792281 41.225397,69.1834898 43.0675601,70.3512442 L41.9409684,77.1988675 C44.3860439,78.4651666 46.9858709,79.4062683 49.6760729,80 L53.236598,74.0343516 C55.4031206,74.3176675 57.5968794,74.3176675 59.763402,74.0343516 L63.3239271,80 C66.0141291,79.4062683 68.6151942,78.4651666 71.0590316,77.1988675 L69.9324399,70.3512442 C71.7758411,69.1834898 73.4558246,67.7792281 74.9327739,66.1766453 L81.5140505,68.4690409 C83.1915579,66.2948989 84.5756563,63.9101177 85.6292053,61.3775195 L80.3428903,56.8518552 C81.0002751,54.7787215 81.3815831,52.6279839 81.4769101,50.4563056 L88,48.0037749 C87.8799127,45.2642329 87.3995637,42.5530224 86.5700951,39.937893 L79.5976065,39.8528982 C78.7619478,37.8438186 77.6638304,35.9529926 76.3342045,34.2284607 L79.7461681,28.1778175 C77.8841967,26.1564198 75.7647186,24.386311 73.4409684,22.9130681 L68.0444702,27.3069289 C66.105742,26.303005 64.0444506,25.5565291 61.9113543,25.0859782 L60.6151548,18.2679183 Z M56.5,35.8507525 C63.9998821,35.8507525 70.0884295,41.9100184 70.0884295,49.3723141 C70.0884295,56.833378 63.9998821,62.8926439 56.5,62.8926439 C49.0001179,62.8926439 42.9115705,56.833378 42.9115705,49.3723141 C42.9115705,41.9100184 49.0001179,35.8507525 56.5,35.8507525 Z" id="Shape" fill="#FFFFFF"></path>
            <path d="M50.3912589,69.9013055 C51.0708313,70.1000669 51.7363739,70.3447321 52.3835283,70.6336865 L55.5701265,67.9972918 L56.4929048,68.5917635 C57.9308027,69.5180852 59.2425084,70.631065 60.3948615,71.902263 L61.1163912,72.6982057 L59.1037132,76.3249783 C59.5029908,76.9252346 59.8612783,77.5519642 60.1759958,78.2007708 L64.2903162,78.2517334 L64.6147756,79.2911806 C65.1273462,80.9332659 65.4243687,82.6360075 65.4986062,84.3568983 L65.5451989,85.436957 L61.6969864,86.9071318 C61.6207251,87.6286701 61.4957543,88.3441777 61.3229633,89.0485169 L64.4406266,91.7606273 L64.033434,92.7552543 C63.3820627,94.3463236 62.5261705,95.8449834 61.4883748,97.2117181 L60.825919,98.0841452 L56.9407246,96.7090238 C56.427527,97.2073464 55.8820385,97.6697933 55.3078516,98.0931691 L55.9725312,102.198371 L55.018276,102.700803 C53.5059074,103.497092 51.8950889,104.089699 50.2276259,104.463646 L49.1600894,104.703053 L47.057692,101.123677 C46.3533379,101.17138 45.6466621,101.17138 44.942308,101.123677 L42.8399106,104.703053 L41.7723741,104.463646 C40.1056212,104.089858 38.4955462,103.497453 36.9820011,102.700949 L36.0274308,102.198605 L36.6921807,98.092969 C36.1178736,97.6694128 35.5724254,97.2069998 35.0597132,96.7090588 L31.1740399,98.084091 L30.5116252,97.2117181 C29.4749291,95.8464316 28.6194655,94.3481847 27.9668002,92.7558261 L27.5590206,91.7609342 L30.6770367,89.0485169 C30.5042457,88.3441777 30.3792749,87.6286701 30.3030136,86.9071318 L26.4543285,85.4367764 L26.5014226,84.3562331 C26.5764062,82.6357837 26.8733529,80.9334771 27.3850347,79.2917886 L27.7091975,78.2517394 L31.8243007,78.2007671 C32.1392652,77.5516094 32.4974186,76.9249349 32.8963288,76.325054 L30.8836088,72.6982057 L31.6051385,71.902263 C32.7574916,70.631065 34.0691973,69.5180852 35.5070952,68.5917635 L36.4297644,67.9973621 L39.6169274,70.6336192 C40.263778,70.3447161 40.9291978,70.1000681 41.6087405,69.9013086 L42.3738826,65.8117175 L43.4509431,65.6686297 C45.1433861,65.4437881 46.8573808,65.4437881 48.5491449,65.6686414 L49.6261299,65.811784 L50.3912589,69.9013055 Z M45.5,79.5 C42.1890981,79.5 39.5,82.189314 39.5,85.5003416 C39.5,88.8107706 42.1891827,91.5 45.5,91.5 C48.8108173,91.5 51.5,88.8107706 51.5,85.5003416 C51.5,82.189314 48.8109019,79.5 45.5,79.5 Z" id="Shape-Copy" stroke="#F1C400" stroke-width="3" fill="#FFFFFF" transform="translate(46.000000, 85.000000) rotate(-10.000000) translate(-46.000000, -85.000000) "></path>
            <path d="M89.0014683,62.2582467 C90.1240326,62.5610962 91.2191521,62.9560957 92.2758251,63.4392827 L96.5673574,59.9611939 L97.4768385,60.535142 C99.3942167,61.7451458 101.143804,63.1993708 102.681285,64.8608033 L103.425746,65.6652822 L100.710761,70.4577437 C101.370077,71.3999222 101.949379,72.3941534 102.442456,73.4301251 L107.98841,73.4974188 L108.317047,74.5287633 C109.002207,76.6789651 109.399293,78.9088826 109.498548,81.1627363 L109.546497,82.2515643 L104.35644,84.1939131 C104.25042,85.3326067 104.049585,86.4607979 103.756043,87.5666317 L107.96217,91.1509431 L107.540047,92.1609979 C106.669865,94.2431649 105.526693,96.2039995 104.140912,97.9917702 L103.481282,98.8427477 L98.2471915,97.0280066 C97.4223937,97.8384245 96.532185,98.578899 95.5854476,99.2417563 L96.4816631,104.664009 L95.5112801,105.164506 C93.4962452,106.203805 91.3503974,106.977134 89.1293505,107.465064 L88.0757573,107.696522 L85.2440983,102.97395 C84.0833374,103.069936 82.9166626,103.069936 81.7559017,102.97395 L78.9242427,107.696522 L77.8706495,107.465064 C75.6505576,106.977344 73.5056837,106.204273 71.488995,105.164648 L70.5182982,104.664243 L71.4145897,99.2415308 C70.4675232,98.5782458 69.5772836,97.8377493 68.7534637,97.0280545 L63.5186775,98.8426954 L62.8590877,97.9917702 C61.474794,96.2059172 60.3321657,94.2455748 59.4601952,92.1615764 L59.0374642,91.1512548 L63.2439574,87.5666317 C62.9504153,86.4607979 62.7495797,85.3326067 62.6435598,84.1939131 L57.4530165,82.2513823 L57.5014824,81.1620573 C57.6017403,78.9086534 57.998747,76.6791793 58.6827562,74.5293805 L59.0110972,73.4974248 L64.5578987,73.4301208 C65.0515579,72.3933964 65.6306375,71.3992578 66.2892752,70.4578077 L63.5742539,65.6652822 L64.3187148,64.8608033 C65.8561963,63.1993708 67.6057833,61.7451458 69.5231615,60.535142 L70.4325349,59.9612619 L74.7248727,63.4392056 C75.7809795,62.9561008 76.8759421,62.5611104 77.9985314,62.2582484 L79.0295545,56.8600185 L80.1057477,56.7199637 C82.359389,56.4266769 84.6416321,56.4266769 86.8943385,56.7199749 L87.9704579,56.8600836 L89.0014683,62.2582467 Z M83.5,73.3199374 C78.4921901,73.3199374 74.4312215,77.3424398 74.4312215,82.2882432 C74.4312215,87.2332191 78.4923182,91.2555953 83.5,91.2555953 C88.5076818,91.2555953 92.5687785,87.2332191 92.5687785,82.2882432 C92.5687785,77.3424398 88.5078099,73.3199374 83.5,73.3199374 Z" id="Shape" stroke="#F1C400" stroke-width="3" fill="#FBF0BF"></path>
        </g>
    </g>
</svg>