<svg xmlns="http://www.w3.org/2000/svg" width="19" height="28" viewBox="0 0 19 28">
    <g fill="none" fill-rule="evenodd">
        <path fill="#F1C400" d="M14.143 21.504a.836.836 0 0 1-.826-.846c0-2.472.79-4.905 2.283-7.034a7.603 7.603 0 0 0 1.38-4.392c0-2.113-.833-4.072-2.344-5.515a7.22 7.22 0 0 0-5.553-2.008C5.518 1.96 2.588 4.896 2.27 8.534a7.686 7.686 0 0 0 1.4 5.164c1.46 2.028 2.231 4.38 2.231 6.802 0 .466-.37.845-.826.845a.836.836 0 0 1-.825-.845c0-2.06-.66-4.064-1.91-5.8A9.408 9.408 0 0 1 .626 8.384C1.016 3.927 4.602.332 8.969.023c2.531-.18 4.946.693 6.794 2.459 1.823 1.74 2.868 4.2 2.868 6.75a9.309 9.309 0 0 1-1.69 5.378c-1.29 1.84-1.972 3.931-1.972 6.048 0 .467-.37.846-.826.846M6.89 24.454a.836.836 0 0 1-.826-.845c0-.467.37-.845.826-.845h5.438c.456 0 .826.378.826.845 0 .466-.37.845-.826.845H6.89zM12.328 27.564H6.89a.836.836 0 0 1-.826-.845c0-.467.37-.845.826-.845h5.438c.456 0 .826.378.826.845 0 .466-.37.845-.826.845"/>
        <path fill="#006AC6" d="M10.191 6.906l-3.06 4.31c-.072.099-.137.187-.206.287-.243.353-.208.259.294.257h1.347c.416.002.34-.035.276.243l-.747 3.212c-.127.644-.317 1.158.41.19.03-.039.087-.124.117-.162l3.45-4.677c.312-.428.424-.4-.21-.377h-1.687c-.37.01-.304.055-.244-.25l.716-2.911c.212-.9.304-1.242-.456-.122"/>
    </g>
</svg>
