<svg xmlns="http://www.w3.org/2000/svg" width="26" height="26" viewBox="0 0 26 26">
    <path fill="none" fill-rule="evenodd" stroke="#FFF" stroke-linecap="round" stroke-width="2" d="M24.789 19.657c-.877-1.659-4.113-3.555-4.113-3.555-.732-.417-1.615-.463-2.032.28 0 0-1.051 1.261-1.319 1.442-1.222.828-2.353.796-3.495-.346L8.522 12.17c-1.142-1.142-1.174-2.273-.346-3.495.18-.268 1.442-1.319 1.442-1.319.743-.417.697-1.3.28-2.032 0 0-1.896-3.236-3.554-4.113a1.817 1.817 0 0 0-2.136.321L3.036 2.705c-3.718 3.718-1.888 7.915 1.83 11.633l6.796 6.795c3.718 3.719 7.915 5.55 11.633 1.83l1.173-1.171c.564-.564.694-1.43.32-2.135z"/>
</svg>
