<svg xmlns="http://www.w3.org/2000/svg" width="221" height="48" viewBox="0 0 221 48">
    <g fill="none" fill-rule="evenodd">
        <path fill="#F1C400" d="M72.397 36.244a1.42 1.42 0 0 1-1.416-1.425c0-4.167 1.353-8.268 3.913-11.856a12.674 12.674 0 0 0 2.361-7.403c0-3.561-1.425-6.864-4.013-9.295-2.587-2.43-5.967-3.632-9.512-3.385-6.109.426-11.126 5.372-11.672 11.505a12.8 12.8 0 0 0 2.4 8.703c2.5 3.417 3.82 7.382 3.82 11.464a1.42 1.42 0 0 1-1.414 1.425 1.42 1.42 0 0 1-1.414-1.425c0-3.47-1.131-6.85-3.27-9.774a15.67 15.67 0 0 1-2.94-10.648C49.91 6.62 56.054.56 63.535.04c4.335-.304 8.471 1.168 11.637 4.144a15.664 15.664 0 0 1 4.912 11.377c0 3.276-1 6.41-2.893 9.064-2.211 3.102-3.38 6.627-3.38 10.195a1.42 1.42 0 0 1-1.414 1.425M59.973 41.217a1.42 1.42 0 0 1-1.415-1.425 1.42 1.42 0 0 1 1.415-1.423h9.315a1.42 1.42 0 0 1 1.415 1.423 1.42 1.42 0 0 1-1.415 1.425h-9.315zM69.288 46.46h-9.315a1.42 1.42 0 0 1-1.415-1.426 1.42 1.42 0 0 1 1.415-1.423h9.315a1.42 1.42 0 0 1 1.415 1.423 1.42 1.42 0 0 1-1.415 1.425"/>
        <path fill="#006AC6" d="M65.628 11.64l-5.244 7.265c-.121.166-.233.314-.352.483-.415.595-.355.437.504.433h2.308c.712.004.582-.058.472.41l-1.279 5.413c-.217 1.086-.544 1.952.703.321.051-.065.149-.208.2-.274l5.91-7.882c.534-.721.725-.674-.36-.636H65.6c-.635.017-.52.093-.417-.42l1.225-4.908c.364-1.515.522-2.093-.78-.206"/>
        <g fill="#006AC6">
            <path d="M42.31 29.271c-1.487 0-2.695 1.22-2.695 2.716 0 1.499 1.208 2.718 2.696 2.718 1.49 0 2.697-1.22 2.697-2.718a2.71 2.71 0 0 0-2.697-2.716M20.028 7.45l-6.316 18.34-.027-.079L7.4 7.451H0v26.74h4.448V13.084l.056.16 7.269 20.947h3.88l7.322-21.107v21.107h4.449V7.45zM31.24 34.19h4.377V18.44h4.914v-3.703H31.24zM189.828 6.218a2.71 2.71 0 0 0-2.697 2.717c0 1.498 1.208 2.717 2.697 2.717 1.487 0 2.697-1.219 2.697-2.717s-1.21-2.717-2.697-2.717M124.398 22.995l.13-.409c.753-2.382 2.841-3.982 5.199-3.982 2.356 0 4.447 1.6 5.201 3.981l.129.41h-10.659zm5.329-8.797c-5.438 0-9.863 4.596-9.863 10.247 0 5.589 4.375 10.186 9.754 10.248.878.062 4.03.102 7.855-2.035l-2.192-3.817c-2.756 1.522-4.904 1.484-5.31 1.459l-.118-.017-.125.004c-2.262 0-4.323-1.516-5.13-3.77l-.15-.42h15.145v-1.652c-.002-5.651-4.427-10.247-9.866-10.247zM152.405 30.305c-3.204 0-5.81-2.625-5.81-5.85 0-3.226 2.606-5.852 5.81-5.852 1.339 0 2.643.47 3.677 1.322l2.953-3.26a10.147 10.147 0 0 0-6.63-2.468c-5.615 0-10.186 4.602-10.186 10.258 0 5.657 4.571 10.257 10.186 10.257 2.438 0 4.794-.878 6.637-2.474l-2.955-3.257a5.791 5.791 0 0 1-3.682 1.324M208.816 28.981a5.796 5.796 0 0 1-3.681 1.324c-3.203 0-5.81-2.624-5.81-5.85 0-3.225 2.607-5.851 5.81-5.851a5.79 5.79 0 0 1 3.676 1.32l2.95-3.26a10.134 10.134 0 0 0-6.626-2.468c-5.617 0-10.186 4.603-10.186 10.259 0 5.656 4.57 10.258 10.186 10.258 2.435 0 4.793-.879 6.638-2.475l-2.957-3.257zM187.64 34.161h4.377V14.744h-4.377zM179.351 18.441h4.913v-3.705h-9.287v19.406h4.374zM166.616 7.41h-4.377v26.73h4.377V18.442h4.914v-3.703h-4.914zM112.287 34.142h4.378V7.412h-4.378zM108.069 11.831V7.424H92.213v-.013h-4.378v26.781h20.234v-4.407H92.213v-6.773h15.856v-4.407H92.213v-6.774zM215.425 11.137v.495h-.95v2.498h-.593v-2.498h-.949v-.495h2.492zm3.213 2.993l-.11-1.76c-.011-.232-.011-.517-.023-.837h-.03c-.08.265-.165.616-.254.891l-.536 1.662h-.61l-.537-1.706c-.055-.231-.14-.582-.207-.847h-.032c0 .275-.01.56-.023.836l-.109 1.76h-.568l.22-2.992h.883l.514 1.464c.067.23.122.45.197.76h.01c.079-.276.144-.53.207-.75l.516-1.474h.851l.23 2.993h-.589z"/>
        </g>
    </g>
</svg>
