<?xml version="1.0" encoding="UTF-8"?>
<svg width="128px" height="128px" viewBox="0 0 128 128" version="1.1" xmlns="http://www.w3.org/2000/svg" xmlns:xlink="http://www.w3.org/1999/xlink">
    <!-- Generator: Sketch 50.2 (55047) - http://www.bohemiancoding.com/sketch -->
    <title>no call out charge</title>
    <desc>Created with Sketch.</desc>
    <defs></defs>
    <g id="Page-1" stroke="none" stroke-width="1" fill="none" fill-rule="evenodd">
        <g id="no-call-out-charge">
            <circle id="Oval" fill="#F1C400" fill-rule="nonzero" cx="64" cy="64" r="64"></circle>
            <path d="M78.9565625,99 L49.0434375,99 C46.8109375,99 45,97.1594828 45,94.8905172 L45,33.1094828 C45,30.8405172 46.8109375,29 49.0434375,29 L78.9565625,29 C81.1890625,29 83,30.8405172 83,33.1094828 L83,94.8905172 C83,97.1594828 81.1890625,99 78.9565625,99 Z" id="Path" stroke="#FFFFFF" stroke-width="3" fill="#FFFFFF" stroke-linecap="round" stroke-linejoin="round" transform="translate(64.000000, 64.000000) rotate(-13.000000) translate(-64.000000, -64.000000) "></path>
            <rect id="Rectangle" stroke="#FFFFFF" stroke-width="3" fill="#F1C400" transform="translate(63.900514, 64.062568) rotate(-13.000000) translate(-63.900514, -64.062568) " x="45.3001252" y="37.0063681" width="37.200777" height="54.1124003"></rect>
            <g id="Group" stroke-linecap="round" stroke-dasharray="3,5" transform="translate(19.000000, 38.000000)" stroke="#FBF0BF" stroke-width="3">
                <path d="M80,0.999999997 C86.6666667,7.61659762 86.6666667,18.3834024 80,25" id="Path" transform="translate(82.500000, 13.000000) rotate(-13.000000) translate(-82.500000, -13.000000) "></path>
                <path d="M74,7 C79.3333333,11.6881197 79.3333333,19.3134705 74,24" id="Path" transform="translate(76.000000, 15.500000) rotate(-13.000000) translate(-76.000000, -15.500000) "></path>
                <path d="M8,45 C1.33333333,38.3834024 1.33333333,27.6165976 8,21" id="Path" transform="translate(5.500000, 33.000000) rotate(-13.000000) translate(-5.500000, -33.000000) "></path>
                <path d="M15,40 C9.66666667,35.5895613 9.66666667,28.4119353 15,24" id="Path" transform="translate(13.000000, 32.000000) rotate(-13.000000) translate(-13.000000, -32.000000) "></path>
            </g>
            <path d="M56.8122251,64.0178405 C56.6028567,64.3057396 56.4092473,64.5619017 56.2043815,64.8543347 C55.4862255,65.8835173 55.589784,65.6092197 57.075624,65.6024189 L61.0671304,65.6024189 C62.2985765,65.6092197 62.0734492,65.5026744 61.8820911,66.3119655 L59.6713413,75.6720864 C59.2953788,77.5490979 58.7303094,79.0475333 60.8870286,76.2274823 C60.9748282,76.1141362 61.1436736,75.8670417 61.2314733,75.7536956 L71.452251,62.1226937 C72.3752728,60.8758866 72.7062099,60.9574958 70.8308998,61.0232365 L65.8330745,61.0232365 C64.7344535,61.0527065 64.9325655,61.184188 65.110416,60.2978215 L67.2288636,51.8104655 C67.8592199,49.1899037 68.1316239,48.1901911 65.8803513,51.4545587 L56.8122251,64.0178405 Z" id="Fill-26" fill="#FFFFFF" fill-rule="nonzero" transform="translate(63.983049, 63.593852) rotate(-12.000000) translate(-63.983049, -63.593852) "></path>
        </g>
    </g>
</svg>