<?xml version="1.0" encoding="UTF-8"?>
<svg width="28px" height="28px" viewBox="0 0 28 28" version="1.1" xmlns="http://www.w3.org/2000/svg" xmlns:xlink="http://www.w3.org/1999/xlink">
    <!-- Generator: Sketch 50.2 (55047) - http://www.bohemiancoding.com/sketch -->
    <title>website-review</title>
    <desc>Created with Sketch.</desc>
    <defs></defs>
    <g id="Page-1" stroke="none" stroke-width="1" fill="none" fill-rule="evenodd">
        <g id="website-review">
            <rect id="Rectangle-Copy" fill="#F1C400" fill-rule="nonzero" x="0" y="0" width="28" height="28" rx="1"></rect>
            <path d="M4.76859092,16.5817832 L4.76079677,16.5881796 C4.66467898,15.7371008 4.80062138,14.7634207 5.16862397,13.6671392 C5.87428654,11.5649669 7.2533384,9.50925388 9.30577957,7.5 L9.30577957,11.7612462 C9.3080944,11.7612431 9.31040963,11.7612414 9.31272526,11.7612414 C11.826686,11.7612414 13.8646538,13.7992092 13.8646538,16.3131699 C13.8646538,18.8271306 11.826686,20.8650984 9.31272526,20.8650984 C6.88893882,20.8650984 4.90761052,18.9707098 4.76859092,16.5817832 Z M15.1729989,16.5817832 L15.1652048,16.5881796 C15.069087,15.7371008 15.2050294,14.7634207 15.573032,13.6671392 C16.2786945,11.5649669 17.6577464,9.50925388 19.7101876,7.5 L19.7101876,11.7612462 C19.7125024,11.7612431 19.7148176,11.7612414 19.7171332,11.7612414 C22.2310939,11.7612414 24.2690617,13.7992092 24.2690617,16.3131699 C24.2690617,18.8271306 22.2310939,20.8650984 19.7171332,20.8650984 C17.2933468,20.8650984 15.3120185,18.9707098 15.1729989,16.5817832 Z" id="Combined-Shape" fill="#FFFFFF"></path>
        </g>
    </g>
</svg>